<svg xmlns="http://www.w3.org/2000/svg" viewBox="0 0 461.59 361.86"><defs><style>.cls-1{isolation:isolate;}.cls-2{opacity:0.2;}.cls-3{fill:#d9eeff;}.cls-4{fill:#c1e4ff;}.cls-16,.cls-5{fill:#fff;}.cls-10,.cls-6{fill:#1bbc9d;}.cls-7,.cls-8{fill:#27debf;}.cls-7{opacity:0.5;mix-blend-mode:multiply;}.cls-9{fill:#2343ba;}.cls-10{opacity:0.7;}.cls-11{fill:#abd5fd;}.cls-12{fill:#4c9fff;}.cls-13{fill:#2460da;}.cls-14{fill:#002176;}.cls-15{fill:#ffdb4c;}.cls-16{opacity:0.3;}.cls-17{fill:#ffc000;}.cls-18{fill:#ffa8a7;}.cls-19{fill:#f28f8f;}</style></defs><title>Asset 2svg1</title><g class="cls-1"><g id="Layer_2" data-name="Layer 2"><g id="Objects"><g id="_Group_" data-name="&lt;Group&gt;"><g id="_Group_2" data-name="&lt;Group&gt;" class="cls-2"><path id="_Path_" data-name="&lt;Path&gt;" class="cls-3" d="M67.6,326.54c90.13,47.08,236.26,47.09,326.39,0S484.12,203.12,394,156,157.73,108.95,67.6,156-22.53,279.46,67.6,326.54Z"/></g><g id="_Group_3" data-name="&lt;Group&gt;"><g id="_Group_4" data-name="&lt;Group&gt;"><path id="_Path_2" data-name="&lt;Path&gt;" class="cls-4" d="M54.19,178.1l5.87-3.35s2.81-15.5.71-28.83c-3-18.74-15.72-25.2-20.35-23.34s-5.72,7.41,2.65,18.24C48,147.21,54.35,160.71,54.19,178.1Z"/></g><g id="_Group_5" data-name="&lt;Group&gt;"><path id="_Path_3" data-name="&lt;Path&gt;" class="cls-5" d="M56.85,172.31h0a.58.58,0,0,1-.55-.62c1.36-23.34-3.1-37.16-14.91-46.19a.58.58,0,0,1,.71-.93c12.15,9.3,16.75,23.41,15.36,47.19A.58.58,0,0,1,56.85,172.31Z"/></g><g id="_Group_6" data-name="&lt;Group&gt;"><path id="_Path_4" data-name="&lt;Path&gt;" class="cls-3" d="M36.48,188.05c-.93.53-2.84-.63-3.57-1.12A8.85,8.85,0,0,1,30,183.55a8.29,8.29,0,0,1-.74-5,19.6,19.6,0,0,1,.63-2.65l.74-2.57a6.51,6.51,0,0,0,.38-2.59c-.22-1.76-1.78-3-3.2-4.05-1.57-1.17-3.2-2.72-3.19-4.84a7.45,7.45,0,0,1,1.86-4.43c1-1.28,2.21-2.41,3.13-3.77a5.2,5.2,0,0,0,1.06-3.29,5.42,5.42,0,0,0-.72-2.05,29.11,29.11,0,0,1-2.25-4.12,4.14,4.14,0,0,1,.71-4.38,4.85,4.85,0,0,1,3.64-.91,8.35,8.35,0,0,1,3.39,1.19c3.36,1.87,5.28,5.85,8.84,7.28a35.66,35.66,0,0,0,4.31,1.05,5.32,5.32,0,0,1,3.56,2.44c1.31,2.61-1.12,5.83-.2,8.61.81,2.45,3.2,3.39,4.54,5.61a5.25,5.25,0,0,1,.63,3.21,15.41,15.41,0,0,1-1.35,5.43,38.63,38.63,0,0,1-3,4.89C52.7,178.7,36.63,188,36.48,188.05Z"/><g id="_Group_7" data-name="&lt;Group&gt;"><path id="_Path_5" data-name="&lt;Path&gt;" class="cls-5" d="M46.09,183.09H46a.58.58,0,0,1-.51-.65C47.2,169,40.79,150.85,31.21,142a.58.58,0,0,1,.79-.86c10,9.22,16.43,27.41,14.66,41.42A.58.58,0,0,1,46.09,183.09Z"/></g><g id="_Group_8" data-name="&lt;Group&gt;"><path id="_Path_6" data-name="&lt;Path&gt;" class="cls-5" d="M44.41,165.54a.58.58,0,0,1-.35-.12c-5.11-3.83-13.25-3.13-13.33-3.12a.58.58,0,0,1-.63-.53.58.58,0,0,1,.53-.63c.35,0,8.68-.75,14.14,3.35a.58.58,0,0,1-.35,1.05Z"/></g><g id="_Group_9" data-name="&lt;Group&gt;"><path id="_Path_7" data-name="&lt;Path&gt;" class="cls-5" d="M43.6,162.18h0a.58.58,0,0,1-.56-.61,15.35,15.35,0,0,1,5.4-10.82.58.58,0,0,1,.72.92,14.43,14.43,0,0,0-5,9.95A.58.58,0,0,1,43.6,162.18Z"/></g></g></g><g id="_Group_10" data-name="&lt;Group&gt;"><path id="_Path_8" data-name="&lt;Path&gt;" class="cls-6" d="M408.2,177.14,201.31,296.59a4.79,4.79,0,0,1-4.33,0L26.64,198.25a4.79,4.79,0,0,1-2.17-3.75v-4.38a4.79,4.79,0,0,1,2.17-3.75L233.53,66.91a4.79,4.79,0,0,1,4.33,0L408.2,165.26a4.79,4.79,0,0,1,2.16,3.75v4.38A4.79,4.79,0,0,1,408.2,177.14Z"/><path id="_Path_9" data-name="&lt;Path&gt;" class="cls-7" d="M410.37,169a4.79,4.79,0,0,0-2.16-3.75l-1.9-1.1L199.14,283.77v13.34a4.42,4.42,0,0,0,2.17-.52L408.2,177.14a4.78,4.78,0,0,0,2.17-3.75Z"/><path id="_Path_10" data-name="&lt;Path&gt;" class="cls-8" d="M26.64,188.87,197,287.21a4.79,4.79,0,0,0,4.33,0L408.2,167.76a1.32,1.32,0,0,0,0-2.5L237.86,66.91a4.79,4.79,0,0,0-4.33,0L26.64,186.37A1.32,1.32,0,0,0,26.64,188.87Z"/><path id="_Path_11" data-name="&lt;Path&gt;" class="cls-3" d="M117.36,213.72c4.76-2.75,4.76-7.25,0-10L95.78,191.26a1.5,1.5,0,0,1,0-2.6l9.94-5.74-16.25-9.38L69.69,185c-4.76,2.75-4.76,7.24,0,10l21.65,12.44a1.5,1.5,0,0,1,0,2.6l-14.07,8.12,16.33,9.33Z"/></g><g id="_Group_11" data-name="&lt;Group&gt;"><g id="_Group_12" data-name="&lt;Group&gt;"><rect id="_Path_12" data-name="&lt;Path&gt;" class="cls-9" x="378.17" y="123.81" width="22.76" height="1.86" transform="translate(101.99 415.63) rotate(-63.09)"/></g><g id="_Group_13" data-name="&lt;Group&gt;"><rect id="_Path_13" data-name="&lt;Path&gt;" class="cls-9" x="378.05" y="111.61" width="1.86" height="19.08" transform="translate(-7.03 217.6) rotate(-31.76)"/></g><path id="_Path_14" data-name="&lt;Path&gt;" class="cls-9" d="M386,110.62v48.9a.77.77,0,0,1-.46.64,2.43,2.43,0,0,1-2.2,0,.77.77,0,0,1-.46-.64v-48.9Z"/><circle id="_Path_15" data-name="&lt;Path&gt;" class="cls-8" cx="400.21" cy="95.4" r="22.71"/><path id="_Path_16" data-name="&lt;Path&gt;" class="cls-6" d="M407.33,89.59c2.93-9.22,6.05-12.83,4.07-14a22.71,22.71,0,1,0,6.33,34.21C411,111.82,403.53,101.56,407.33,89.59Z"/><circle id="_Path_17" data-name="&lt;Path&gt;" class="cls-8" cx="364.44" cy="101.83" r="15.96"/><path id="_Path_18" data-name="&lt;Path&gt;" class="cls-6" d="M364.44,85.87a15.88,15.88,0,0,0-9.33,3c-.43,9.75,7.85,19.26,5.53,22.45s-8,1.23-10-1.48a16,16,0,1,0,13.8-24Z"/><g id="_Group_14" data-name="&lt;Group&gt;"><circle id="_Path_19" data-name="&lt;Path&gt;" class="cls-8" cx="384.4" cy="84.62" r="29.28"/></g><path id="_Path_20" data-name="&lt;Path&gt;" class="cls-10" d="M412.9,91.31A29.28,29.28,0,1,1,370,59.13a29.49,29.49,0,0,0-6.86,5.37,29.28,29.28,0,0,0,28.5,36A29.2,29.2,0,0,0,412.9,91.31Z"/></g><g id="_Group_15" data-name="&lt;Group&gt;"><g id="_Group_16" data-name="&lt;Group&gt;"><polygon id="_Path_21" data-name="&lt;Path&gt;" class="cls-11" points="174.77 143.06 227.57 112.57 227.57 168.86 174.77 199.34 174.77 143.06"/><g id="_Group_17" data-name="&lt;Group&gt;"><path id="_Path_22" data-name="&lt;Path&gt;" class="cls-12" d="M210.24,136.69,192.1,147.13A2.39,2.39,0,0,0,191,149v21c0,.69.48,1,1.08.63l18.14-10.44a2.39,2.39,0,0,0,1.08-1.88v-21C211.33,136.62,210.84,136.34,210.24,136.69Z"/><path id="_Path_23" data-name="&lt;Path&gt;" class="cls-3" d="M209.24,158.41a1.4,1.4,0,0,0,.09-.2V139.53l-16.23,9.34a1.38,1.38,0,0,0-.09.2v18.68Z"/><polygon id="_Path_24" data-name="&lt;Path&gt;" class="cls-12" points="211.33 146.61 191.02 158.31 191.02 160.65 211.33 148.96 211.33 146.61"/><polygon id="_Path_25" data-name="&lt;Path&gt;" class="cls-12" points="202.19 141.32 202.19 164.82 200.16 165.95 200.16 142.5 202.19 141.32"/></g><polygon id="_Path_26" data-name="&lt;Path&gt;" class="cls-9" points="174.77 199.34 174.77 204.03 227.58 173.55 227.57 168.86 174.77 199.34"/></g><g id="_Group_18" data-name="&lt;Group&gt;"><polygon id="_Path_27" data-name="&lt;Path&gt;" class="cls-4" points="280.38 143.06 227.57 112.57 227.57 168.86 280.38 199.34 280.38 143.06"/><g id="_Group_19" data-name="&lt;Group&gt;"><path id="_Path_28" data-name="&lt;Path&gt;" class="cls-12" d="M244.91,136.69l18.15,10.44a2.39,2.39,0,0,1,1.08,1.88v21c0,.69-.48,1-1.08.63l-18.14-10.44a2.39,2.39,0,0,1-1.08-1.88v-21C243.82,136.62,244.31,136.34,244.91,136.69Z"/><path id="_Path_29" data-name="&lt;Path&gt;" class="cls-3" d="M245.91,158.41a1.41,1.41,0,0,1-.09-.2V139.53l16.23,9.34a1.39,1.39,0,0,1,.09.2v18.68Z"/><polygon id="_Path_30" data-name="&lt;Path&gt;" class="cls-12" points="243.82 146.61 264.13 158.31 264.13 160.65 243.82 148.96 243.82 146.61"/><polygon id="_Path_31" data-name="&lt;Path&gt;" class="cls-12" points="252.96 141.32 252.96 164.82 254.99 165.95 254.99 142.5 252.96 141.32"/></g><polygon id="_Path_32" data-name="&lt;Path&gt;" class="cls-13" points="280.38 199.34 280.38 204.03 227.57 173.55 227.57 168.86 280.38 199.34"/></g><g id="_Group_20" data-name="&lt;Group&gt;"><polygon id="_Path_33" data-name="&lt;Path&gt;" class="cls-11" points="280.38 143.06 325.06 56.29 357.56 98.5 357.56 154.78 280.38 199.34 280.38 143.06"/><g id="_Group_21" data-name="&lt;Group&gt;"><path id="_Path_34" data-name="&lt;Path&gt;" class="cls-12" d="M310.8,139.53,292.66,150a2.39,2.39,0,0,0-1.08,1.88v21c0,.69.48,1,1.08.63L310.8,163a2.39,2.39,0,0,0,1.08-1.87v-21C311.89,139.47,311.4,139.19,310.8,139.53Z"/><path id="_Path_35" data-name="&lt;Path&gt;" class="cls-3" d="M309.8,161.25a1.41,1.41,0,0,0,.09-.2V142.37l-16.23,9.34a1.39,1.39,0,0,0-.09.2v18.68Z"/><polygon id="_Path_36" data-name="&lt;Path&gt;" class="cls-12" points="311.89 149.46 291.57 161.15 291.57 163.5 311.89 151.81 311.89 149.46"/><polygon id="_Path_37" data-name="&lt;Path&gt;" class="cls-12" points="302.75 144.17 302.75 167.67 300.72 168.79 300.72 145.34 302.75 144.17"/></g><g id="_Group_22" data-name="&lt;Group&gt;"><path id="_Path_38" data-name="&lt;Path&gt;" class="cls-12" d="M347.36,118.41l-18.15,10.44a2.39,2.39,0,0,0-1.08,1.88v21c0,.69.48,1,1.08.63l18.14-10.44a2.39,2.39,0,0,0,1.08-1.87V119C348.44,118.35,348,118.07,347.36,118.41Z"/><path id="_Path_39" data-name="&lt;Path&gt;" class="cls-3" d="M346.36,140.13a1.41,1.41,0,0,0,.09-.2V121.25l-16.23,9.34a1.39,1.39,0,0,0-.09.2v18.68Z"/><polygon id="_Path_40" data-name="&lt;Path&gt;" class="cls-12" points="348.44 128.34 328.13 140.03 328.13 142.38 348.44 130.69 348.44 128.34"/><polygon id="_Path_41" data-name="&lt;Path&gt;" class="cls-12" points="339.31 123.05 339.31 146.55 337.27 147.67 337.27 124.22 339.31 123.05"/></g><g id="_Group_23" data-name="&lt;Group&gt;"><path id="_Path_42" data-name="&lt;Path&gt;" class="cls-12" d="M316,87.35l10-5.79c.6-.35,1.08-.07,1.08.63v21A2.39,2.39,0,0,1,326,105l-10,5.79c-.6.35-1.08.07-1.08-.62v-21A2.39,2.39,0,0,1,316,87.35Z"/><path id="_Path_43" data-name="&lt;Path&gt;" class="cls-3" d="M316.91,89.23a1.8,1.8,0,0,1,.13-.17l8.05-4.65v18.74a1.63,1.63,0,0,1-.13.17L316.91,108Z"/><polygon id="_Path_44" data-name="&lt;Path&gt;" class="cls-12" points="325.09 92.65 316.91 97.38 316.91 99.72 325.09 94.99 325.09 92.65"/></g><polygon id="_Path_45" data-name="&lt;Path&gt;" class="cls-9" points="280.38 199.34 357.56 154.78 357.56 159.47 280.38 204.03 280.38 199.34"/></g><g id="_Group_24" data-name="&lt;Group&gt;"><polygon id="_Path_46" data-name="&lt;Path&gt;" class="cls-4" points="174.77 143.06 130.09 56.29 97.59 98.5 97.59 154.78 174.77 199.34 174.77 143.06"/><polygon id="_Path_47" data-name="&lt;Path&gt;" class="cls-9" points="105.72 159.47 105.72 117.26 121.96 126.64 121.96 168.86 105.72 159.47"/><g id="_Group_25" data-name="&lt;Group&gt;"><path id="_Path_48" data-name="&lt;Path&gt;" class="cls-12" d="M139.29,136.69l18.15,10.44a2.39,2.39,0,0,1,1.08,1.88v21c0,.69-.48,1-1.08.63l-18.14-10.44a2.39,2.39,0,0,1-1.08-1.88v-21C138.21,136.62,138.7,136.34,139.29,136.69Z"/><path id="_Path_49" data-name="&lt;Path&gt;" class="cls-3" d="M140.29,158.41a1.41,1.41,0,0,1-.09-.2V139.53l16.23,9.34a1.39,1.39,0,0,1,.09.2v18.68Z"/><polygon id="_Path_50" data-name="&lt;Path&gt;" class="cls-12" points="138.21 146.61 158.52 158.31 158.52 160.65 138.21 148.96 138.21 146.61"/><polygon id="_Path_51" data-name="&lt;Path&gt;" class="cls-12" points="147.35 141.32 147.35 164.82 149.38 165.95 149.38 142.5 147.35 141.32"/></g><g id="_Group_26" data-name="&lt;Group&gt;"><path id="_Path_52" data-name="&lt;Path&gt;" class="cls-12" d="M139.16,87.35l-10-5.79c-.6-.35-1.08-.07-1.08.63v21a2.39,2.39,0,0,0,1.08,1.88l10,5.79c.6.35,1.08.07,1.08-.62v-21A2.39,2.39,0,0,0,139.16,87.35Z"/><path id="_Path_53" data-name="&lt;Path&gt;" class="cls-3" d="M138.24,89.23a1.8,1.8,0,0,0-.13-.17l-8.05-4.65v18.74a1.63,1.63,0,0,0,.13.17l8.06,4.65Z"/><polygon id="_Path_54" data-name="&lt;Path&gt;" class="cls-12" points="130.06 92.65 138.24 97.38 138.24 99.72 130.06 94.99 130.06 92.65"/></g></g><g id="_Group_27" data-name="&lt;Group&gt;"><g id="_Group_28" data-name="&lt;Group&gt;"><polygon id="_Path_55" data-name="&lt;Path&gt;" class="cls-13" points="281.26 145.92 227.57 114.92 227.57 2.35 325.94 59.15 281.26 145.92"/><polygon id="_Path_56" data-name="&lt;Path&gt;" class="cls-13" points="325.06 56.29 324.13 58.09 359.76 97.23 361.62 96.15 325.06 56.29"/><polygon id="_Path_57" data-name="&lt;Path&gt;" class="cls-14" points="359.76 97.23 357.56 98.5 324.31 62.32 325.63 59.74 359.76 97.23"/></g><polygon id="_Path_58" data-name="&lt;Path&gt;" class="cls-12" points="280.38 143.06 227.57 112.57 227.57 0 325.06 56.29 280.38 143.06"/></g><g id="_Group_29" data-name="&lt;Group&gt;"><g id="_Group_30" data-name="&lt;Group&gt;"><polygon id="_Path_59" data-name="&lt;Path&gt;" class="cls-9" points="173.89 145.92 227.57 114.92 227.57 2.35 129.21 59.15 173.89 145.92"/><polygon id="_Path_60" data-name="&lt;Path&gt;" class="cls-9" points="130.09 56.29 131.02 58.09 95.39 97.23 93.53 96.15 130.09 56.29"/><polygon id="_Path_61" data-name="&lt;Path&gt;" class="cls-14" points="95.39 97.23 97.59 98.5 130.84 62.32 129.52 59.74 95.39 97.23"/></g><polygon id="_Path_62" data-name="&lt;Path&gt;" class="cls-13" points="174.77 143.06 227.57 112.57 227.57 0 130.09 56.29 174.77 143.06"/></g><g id="_Group_31" data-name="&lt;Group&gt;"><polygon id="_Path_63" data-name="&lt;Path&gt;" class="cls-4" points="175.78 86.19 186.96 107.88 186.96 84.43 175.78 77.98 175.78 86.19"/><polygon id="_Path_64" data-name="&lt;Path&gt;" class="cls-11" points="186.96 84.43 199.14 63.32 207.26 72.7 207.26 96.15 186.96 107.88 186.96 84.43"/><g id="_Group_32" data-name="&lt;Group&gt;"><path id="_Path_65" data-name="&lt;Path&gt;" class="cls-12" d="M193.35,81.84l7.52-4.34c.45-.26.81,0,.81.47V93.69a1.79,1.79,0,0,1-.81,1.41l-7.52,4.34c-.45.26-.81,0-.81-.47V83.25A1.79,1.79,0,0,1,193.35,81.84Z"/><path id="_Path_66" data-name="&lt;Path&gt;" class="cls-3" d="M194,83.25a1.39,1.39,0,0,1,.1-.13l6-3.49V93.69a1.22,1.22,0,0,1-.09.13l-6,3.49Z"/><polygon id="_Path_67" data-name="&lt;Path&gt;" class="cls-12" points="200.18 85.82 194.04 89.36 194.04 91.12 200.18 87.58 200.18 85.82"/></g><polygon id="_Path_68" data-name="&lt;Path&gt;" class="cls-14" points="199.14 63.32 203.2 65.67 211.33 75.05 207.26 72.7 199.14 63.32"/><polygon id="_Path_69" data-name="&lt;Path&gt;" class="cls-14" points="199.14 62.32 203.2 64.67 211.33 74.05 207.26 71.7 199.14 62.32"/><polygon id="_Path_70" data-name="&lt;Path&gt;" class="cls-9" points="203.2 65.67 186.96 89.12 170.71 79.74 186.95 56.28 203.2 65.67"/><polygon id="_Path_71" data-name="&lt;Path&gt;" class="cls-9" points="203.2 64.67 186.96 88.12 170.71 78.74 186.95 55.28 203.2 64.67"/><polygon id="_Path_72" data-name="&lt;Path&gt;" class="cls-13" points="203.2 64.67 203.2 65.67 211.33 75.05 211.33 74.05 203.2 64.67"/><polygon id="_Path_73" data-name="&lt;Path&gt;" class="cls-13" points="203.2 64.67 186.96 88.12 186.96 89.12 203.2 65.67 203.2 64.67"/><polygon id="_Path_74" data-name="&lt;Path&gt;" class="cls-14" points="170.71 78.74 170.71 79.74 186.96 89.12 186.96 88.12 170.71 78.74"/></g><g id="_Group_33" data-name="&lt;Group&gt;"><polygon id="_Path_75" data-name="&lt;Path&gt;" class="cls-11" points="279.37 86.19 268.2 107.88 268.2 84.43 279.37 77.98 279.37 86.19"/><polygon id="_Path_76" data-name="&lt;Path&gt;" class="cls-4" points="268.2 84.43 256.01 63.32 247.89 72.7 247.89 96.15 268.2 107.88 268.2 84.43"/><g id="_Group_34" data-name="&lt;Group&gt;"><path id="_Path_77" data-name="&lt;Path&gt;" class="cls-12" d="M261.8,81.84l-7.52-4.34c-.45-.26-.81,0-.81.47V93.69a1.79,1.79,0,0,0,.81,1.41l7.52,4.34c.45.26.81,0,.81-.47V83.25A1.79,1.79,0,0,0,261.8,81.84Z"/><path id="_Path_78" data-name="&lt;Path&gt;" class="cls-3" d="M261.11,83.25a1.39,1.39,0,0,0-.1-.13l-6-3.49V93.69a1.22,1.22,0,0,0,.09.13l6,3.49Z"/><polygon id="_Path_79" data-name="&lt;Path&gt;" class="cls-12" points="254.97 85.82 261.11 89.36 261.11 91.12 254.97 87.58 254.97 85.82"/></g><polygon id="_Path_80" data-name="&lt;Path&gt;" class="cls-14" points="256.01 63.32 251.95 65.67 243.82 75.05 247.89 72.7 256.01 63.32"/><polygon id="_Path_81" data-name="&lt;Path&gt;" class="cls-14" points="256.01 62.32 251.95 64.67 243.82 74.05 247.89 71.7 256.01 62.32"/><polygon id="_Path_82" data-name="&lt;Path&gt;" class="cls-9" points="251.95 65.67 268.2 89.12 284.44 79.74 268.2 56.28 251.95 65.67"/><polygon id="_Path_83" data-name="&lt;Path&gt;" class="cls-13" points="251.95 64.67 268.2 88.12 284.44 78.74 268.2 55.28 251.95 64.67"/><polygon id="_Path_84" data-name="&lt;Path&gt;" class="cls-9" points="251.95 64.67 251.95 65.67 243.82 75.05 243.82 74.05 251.95 64.67"/><polygon id="_Path_85" data-name="&lt;Path&gt;" class="cls-9" points="251.95 64.67 268.2 88.12 268.2 89.12 251.95 65.67 251.95 64.67"/><polygon id="_Path_86" data-name="&lt;Path&gt;" class="cls-14" points="284.44 78.74 284.44 79.74 268.2 89.12 268.2 88.12 284.44 78.74"/></g><g id="_Group_35" data-name="&lt;Group&gt;"><polygon id="_Path_87" data-name="&lt;Path&gt;" class="cls-9" points="174.77 199.34 158.52 208.72 158.52 213.41 174.77 204.03 174.77 199.34"/><polygon id="_Path_88" data-name="&lt;Path&gt;" class="cls-13" points="158.52 208.72 81.34 164.17 81.34 168.86 158.52 213.41 158.52 208.72"/><polygon id="_Path_89" data-name="&lt;Path&gt;" class="cls-12" points="97.59 154.78 81.34 164.17 158.52 208.72 174.77 199.34 97.59 154.78"/></g><g id="_Group_36" data-name="&lt;Group&gt;"><path id="_Path_90" data-name="&lt;Path&gt;" class="cls-9" d="M156.45,202.86a1,1,0,0,0,.6.82,3.24,3.24,0,0,0,2.93,0,1,1,0,0,0,.6-.82h0v-58h-4.14v58Z"/><path id="_Path_91" data-name="&lt;Path&gt;" class="cls-9" d="M89.55,164.41a1,1,0,0,0,.6.82,3.24,3.24,0,0,0,2.93,0,1,1,0,0,0,.6-.82h0v-58H89.55v58Z"/><g id="_Group_37" data-name="&lt;Group&gt;"><polygon id="_Path_92" data-name="&lt;Path&gt;" class="cls-12" points="174.77 143.06 93.53 96.15 77.28 105.53 158.52 152.44 174.77 143.06"/><polygon id="_Path_93" data-name="&lt;Path&gt;" class="cls-9" points="158.52 152.44 158.52 154.78 174.77 145.4 174.77 143.06 158.52 152.44"/><polygon id="_Path_94" data-name="&lt;Path&gt;" class="cls-13" points="158.52 152.44 77.28 105.53 77.28 107.88 158.52 154.78 158.52 152.44"/></g></g></g><g id="_Group_38" data-name="&lt;Group&gt;"><path id="_Path_95" data-name="&lt;Path&gt;" class="cls-9" d="M244.31,306.29a2.26,2.26,0,0,0,1.31,1.79,7.06,7.06,0,0,0,6.39,0,2.26,2.26,0,0,0,1.31-1.79h0V240.5h-9v65.79Z"/><g id="_Group_39" data-name="&lt;Group&gt;"><polygon id="_Path_96" data-name="&lt;Path&gt;" class="cls-15" points="207.07 253.25 207.07 213.37 287.66 259.89 287.66 299.77 207.07 253.25"/><polygon id="_Path_97" data-name="&lt;Path&gt;" class="cls-15" points="207.07 213.37 212.83 210.04 293.42 256.57 287.66 259.89 207.07 213.37"/><polygon id="_Path_98" data-name="&lt;Path&gt;" class="cls-16" points="207.07 213.37 212.83 210.04 293.42 256.57 287.66 259.89 207.07 213.37"/><polygon id="_Path_99" data-name="&lt;Path&gt;" class="cls-17" points="293.42 256.57 293.42 296.45 287.66 299.77 287.66 259.89 293.42 256.57"/><g id="_Group_40" data-name="&lt;Group&gt;"><path id="_Compound_Path_" data-name="&lt;Compound Path&gt;" class="cls-14" d="M213.51,244V229.47c0-.3.05-.49.16-.56s.28,0,.51.1l5.34,3.08q.49.29.49,1.27V234q0,1-.49.7l-3.38-2v4l3.15,1.82q.49.29.49,1.27v.59q0,1-.49.7l-3.15-1.82v6.28c0,.23-.08.35-.24.37a1.56,1.56,0,0,1-.77-.29l-.61-.35Q213.51,244.66,213.51,244Z"/><path id="_Compound_Path_2" data-name="&lt;Compound Path&gt;" class="cls-14" d="M221.44,241.18q0-8.13,5.1-5.18t5.08,11.07q0,8.18-5.08,5.24T221.44,241.18Zm6.92,8.33a8.64,8.64,0,0,0,.59-4,14.28,14.28,0,0,0-.58-4.64,4.2,4.2,0,0,0-1.81-2.31q-1.25-.72-1.84.21a8.49,8.49,0,0,0-.59,4,14.29,14.29,0,0,0,.59,4.67,4.26,4.26,0,0,0,1.84,2.35Q227.77,250.45,228.36,249.5Z"/><path id="_Compound_Path_3" data-name="&lt;Compound Path&gt;" class="cls-14" d="M233.69,255.65V241.12q0-.43.17-.54t.52.1l3.18,1.84a7.26,7.26,0,0,1,4,6.64q0,2.72-1.86,2.79V252a8.4,8.4,0,0,1,1.35,3.27l1.19,5.09,0,.17a.74.74,0,0,1,0,.16q0,.53-1.07-.09l-.57-.33q-.93-.54-1-1.12l-1.09-5a4.88,4.88,0,0,0-.54-1.39,2.68,2.68,0,0,0-.94-.84l-.73-.42v5.64q0,.66-1,.06l-.53-.31Q233.69,256.31,233.69,255.65Zm4-6.11a.67.67,0,0,0,.91-.09A2.08,2.08,0,0,0,239,248a4,4,0,0,0-.37-1.82,2.55,2.55,0,0,0-1-1.09l-1.35-.78v4.39Z"/><path id="_Compound_Path_4" data-name="&lt;Compound Path&gt;" class="cls-14" d="M247.5,264.09a7.49,7.49,0,0,1-1.4-1.66q-.12-.27-.18-.46a1.32,1.32,0,0,1-.06-.41,2.08,2.08,0,0,1,.24-1q.24-.45.53-.27a1.8,1.8,0,0,1,.4.4l.34.41a6.49,6.49,0,0,0,1.84,1.7,1.66,1.66,0,0,0,1.28.28q.52-.16.52-1.11a3.41,3.41,0,0,0-.46-1.75,15,15,0,0,0-1.43-1.95,21.86,21.86,0,0,1-1.65-2.2,9.32,9.32,0,0,1-1-2.09,7.29,7.29,0,0,1-.37-2.35q0-2.06,1.15-2.57a3.34,3.34,0,0,1,3,.55,8.62,8.62,0,0,1,1.38,1,7.9,7.9,0,0,1,1.15,1.22,1.34,1.34,0,0,1,.28.78,2.44,2.44,0,0,1-.22,1q-.22.49-.49.33a2.88,2.88,0,0,1-.46-.42,6.68,6.68,0,0,0-1.48-1.22q-.83-.48-1.26-.25a1,1,0,0,0-.43.94,3.28,3.28,0,0,0,.27,1.31,5,5,0,0,0,.61,1.07q.35.45,1.26,1.57a15.67,15.67,0,0,1,2.08,3.11,7.18,7.18,0,0,1,.67,3.14,4,4,0,0,1-.48,2.12,1.73,1.73,0,0,1-1.44.86,4.25,4.25,0,0,1-2.3-.71A10.44,10.44,0,0,1,247.5,264.09Z"/><path id="_Compound_Path_5" data-name="&lt;Compound Path&gt;" class="cls-14" d="M254.08,267.63s0-.17,0-.37l3.25-12.79q.12-.5,1.07,0l1,.61a2,2,0,0,1,1.09,1.2l3.22,16.53c0,.23,0,.37,0,.41q0,.46-.81,0l-.79-.46c-.57-.33-.88-.65-.93-1l-.63-3.5-3.44-2-.63,2.76q-.08.39-.85-.06l-.79-.46Q254.08,268.08,254.08,267.63Zm6.21-1.94-1.07-5.94q-.14-.81-.24-1.76l-.1-.06c-.07.56-.15,1-.24,1.48l-1,4.72Z"/><path id="_Compound_Path_6" data-name="&lt;Compound Path&gt;" class="cls-14" d="M265.37,274.37a1.52,1.52,0,0,1-.16-.74V259.1q0-.66,1-.08l.61.35a2.75,2.75,0,0,1,.77.61,1,1,0,0,1,.24.64v12.81l3.36,1.94a.89.89,0,0,1,.4.47,2.27,2.27,0,0,1,.12.81v.59a1.29,1.29,0,0,1-.12.67q-.12.17-.4,0l-5.32-3.07A1.33,1.33,0,0,1,265.37,274.37Z"/><path id="_Compound_Path_7" data-name="&lt;Compound Path&gt;" class="cls-14" d="M273.45,279a1.52,1.52,0,0,1-.16-.74V264q0-.46.16-.56c.11-.07.28,0,.51.1l5.78,3.33a.9.9,0,0,1,.4.47,2.3,2.3,0,0,1,.12.81v.59a1.3,1.3,0,0,1-.12.67q-.12.17-.4,0l-3.82-2.2v4l3.4,2a.89.89,0,0,1,.4.47,2.3,2.3,0,0,1,.12.81V275a1.3,1.3,0,0,1-.12.67q-.12.17-.4,0l-3.4-2v4.34l3.84,2.22a.87.87,0,0,1,.38.44,2.29,2.29,0,0,1,.12.82v.59a1.29,1.29,0,0,1-.12.68q-.12.16-.38,0l-5.8-3.35A1.31,1.31,0,0,1,273.45,279Z"/></g></g></g><g id="_Group_41" data-name="&lt;Group&gt;"><path id="_Path_100" data-name="&lt;Path&gt;" class="cls-11" d="M320.24,320.62c13.35,6.36,35,6.36,48.33,0s13.35-16.67,0-23-35-6.36-48.33,0S306.9,314.26,320.24,320.62Z"/><g id="_Group_42" data-name="&lt;Group&gt;"><g id="_Group_43" data-name="&lt;Group&gt;"><g id="_Group_44" data-name="&lt;Group&gt;"><rect id="_Rectangle_" data-name="&lt;Rectangle&gt;" class="cls-18" x="356.17" y="299.54" width="5.63" height="8.2"/><rect id="_Rectangle_2" data-name="&lt;Rectangle&gt;" class="cls-18" x="336.5" y="289.49" width="5.63" height="8.2" transform="translate(-9.89 11.84) rotate(-1.97)"/><path id="_Path_101" data-name="&lt;Path&gt;" class="cls-13" d="M361.43,219.48c0,5.38.7,40.17.7,40.17.13,1.55,1.58,4.4,1.27,10.34-.43,8.07-1.12,30.5-1.12,30.5s-2.64,2.62-6.37,0c0,0-5.1-30.48-6.11-38.48-.88-7-2.37-26-2.37-26l-5.22,22.33s.92,5.25,1.12,9-1,25.1-1,25.1a6.15,6.15,0,0,1-6.13.23s-4.52-31.27-5.11-34.61,4-38.6,4-38.6Z"/><path id="_Path_102" data-name="&lt;Path&gt;" class="cls-18" d="M341,182c-2.31.27-4.15,1.52-7.5,7.22-2.68,4.55-8.28,13.3-8.28,13.3-.51-.4-12.92-7.61-15.67-11a19.81,19.81,0,0,0-2.07-3.66q-1.58-2.06-3.26-4a1.18,1.18,0,0,0-.29-.27c-.41-.24-1,.12-1.1.58a2.4,2.4,0,0,0,.16,1.4c.2.6.8,1.43,0,1.57a4,4,0,0,1-2.11-.47q-1.62-.7-3.18-1.53a4.82,4.82,0,0,0-2.12-.76,2.72,2.72,0,0,0-2.48,1.88,4,4,0,0,0,.39,3.2,8.13,8.13,0,0,0,2.23,2.43c1.9,1.47,4.41,2.14,6.71,2.75a10.3,10.3,0,0,1,3.24,1.52c1.83,1.28,11.46,10.23,15.91,13.73,2.12,1.67,5.14,2.6,7.56.15s12.13-15.4,12.13-15.4l6.12-12.08A27.72,27.72,0,0,0,341,182Z"/><path id="_Path_103" data-name="&lt;Path&gt;" class="cls-14" d="M340.26,182.1c-1.63.58-4.59,2.83-8.73,9.43s-6.88,10.64-6.88,10.64l-13.2-9.36a12.38,12.38,0,0,0-4.23,5.41s14.09,12.2,15.2,13.07c2.45,1.93,3.71,2.29,5.87.47s9.35-12.51,9.35-12.51Z"/><path id="_Path_104" data-name="&lt;Path&gt;" class="cls-5" d="M353,182.23l.08,0a11.16,11.16,0,0,1,8.4,10.86v26.37c-3.95,4.3-17.72,6.3-26.34,0V192c0-4.39,2.44-9.66,9.17-10Z"/><g id="_Group_45" data-name="&lt;Group&gt;"><g id="_Group_46" data-name="&lt;Group&gt;"><path id="_Path_105" data-name="&lt;Path&gt;" class="cls-14" d="M354.85,159.78a3,3,0,0,1,2.48.87c1.07,1.09.85,3.11,0,7.75l-3.3.38Z"/><path id="_Path_106" data-name="&lt;Path&gt;" class="cls-14" d="M335.63,158.43a5.16,5.16,0,0,1-2.06-.42c-1-.58-1.28.57-.72,1.57a4.71,4.71,0,0,0,3.82,2.55c0-.14.95-2.57.95-2.57Z"/><path id="_Path_107" data-name="&lt;Path&gt;" class="cls-18" d="M353.3,168.78c.49.29,1.19-.65,1.79-1.28a2.12,2.12,0,0,1,3.56.58c1,2.11-1.27,4.92-2.61,5.84a2.34,2.34,0,0,1-2.74.24l-.35,8.07s-1.64,3-6.37,3.71c-2.66.39-3.88-2-2.32-4V179a11.25,11.25,0,0,1-3.6.18c-.62-.16-2.09-1.95-3-3.94-1.07-2.24-2.85-6.22-1.26-12.94,1.7-7.22,9.46-7.44,14.09-4.53S353.3,168.78,353.3,168.78Z"/><path id="_Path_108" data-name="&lt;Path&gt;" class="cls-14" d="M353.3,169.6c.25,0,1.18-1.55,1.79-2.1.84-.77-.24-7.72-.24-7.72s.85-2.64-.81-4.39-4.9-1.45-7.26-1.54a21.24,21.24,0,0,1-8.45-1.7c-3.36-1.46-3.61-1.63-4-.16s-.57,4.85,1.43,7.11l1.67.61s.9.8,4,1.18a46.29,46.29,0,0,0,8.68-.16c.91-.12,1.1.76,1.59,3.16C352.12,166,352.47,169.59,353.3,169.6Z"/><path id="_Path_109" data-name="&lt;Path&gt;" class="cls-14" d="M354.84,160.32l3-1.59a1.63,1.63,0,0,0-2.24-.74A1.76,1.76,0,0,0,354.84,160.32Z"/><path id="_Path_110" data-name="&lt;Path&gt;" class="cls-19" d="M344.26,179a33.66,33.66,0,0,0,5.92-1.7,5.05,5.05,0,0,0,2.12-2.1,6.91,6.91,0,0,1-1.2,2.47c-1.12,1.43-6.84,2.49-6.84,2.49Z"/></g><g id="_Group_47" data-name="&lt;Group&gt;"><ellipse id="_Path_111" data-name="&lt;Path&gt;" class="cls-14" cx="346.2" cy="167.68" rx="0.88" ry="0.91" transform="translate(-0.47 0.97) rotate(-0.16)"/><path id="_Path_112" data-name="&lt;Path&gt;" class="cls-14" d="M346.25,164.36l1.88,1a1.13,1.13,0,0,0-.44-1.5A1,1,0,0,0,346.25,164.36Z"/><path id="_Path_113" data-name="&lt;Path&gt;" class="cls-19" d="M345.38,173.64l-2,.75a1.05,1.05,0,0,0,1.36.67A1.12,1.12,0,0,0,345.38,173.64Z"/><path id="_Path_114" data-name="&lt;Path&gt;" class="cls-14" d="M337.47,165.09l1.72-1.32a1,1,0,0,0-1.49-.23A1.14,1.14,0,0,0,337.47,165.09Z"/><ellipse id="_Path_115" data-name="&lt;Path&gt;" class="cls-14" cx="338.88" cy="167.43" rx="0.88" ry="0.91" transform="translate(-0.47 0.96) rotate(-0.16)"/><polygon id="_Path_116" data-name="&lt;Path&gt;" class="cls-19" points="342.48 166.6 342.19 171.89 339.43 170.94 342.48 166.6"/></g></g><path id="_Path_117" data-name="&lt;Path&gt;" class="cls-14" d="M356.17,305v-.81c-.54.23-1.79,5-4,7.05-1.78,1.62-4.2,3.49-4.82,5.3s3.37,2.92,5,2.62c1.93-.34,5.27-1.7,6.11-3s1.23-3.12,1.91-4,2.25-2,2.62-3a6.81,6.81,0,0,0-.32-3c-.26-1-.54-2.09-.88-2,0,.12,0,.61,0,.61a4.45,4.45,0,0,1-2.82,1C358.16,305.76,356.16,305.59,356.17,305Z"/><path id="_Path_118" data-name="&lt;Path&gt;" class="cls-14" d="M336.58,296c-.29,0-.53.42-1.18,1.12a12.31,12.31,0,0,1-3.31,2.38c-2.11,1.06-6.21,2.68-8.06,3.52-1.16.52-1.1,1.92.09,2.72s4.09,1.37,7.57.59c1.89-.42,4.36-2.17,5.92-2.08s4.48.07,5.63-.72.69-2.49.37-3.94-.86-4-1.39-3.91l0,.5c-.68,1-4.12,1.44-5.61.69Z"/></g></g></g><path id="_Path_119" data-name="&lt;Path&gt;" class="cls-9" d="M347.41,236.06a45.3,45.3,0,0,1-6.51-3.58,16.94,16.94,0,0,0,5,4.17l-2.73,17.44Z"/><path id="_Path_120" data-name="&lt;Path&gt;" class="cls-14" d="M344.26,182a12.27,12.27,0,0,0-3.92,6.07c-.84,3.62-1,44-1,44s-4.29-.79-6.3-2.37V192.78c0-5,1.22-10.55,11.18-11.39Z"/><path id="_Path_121" data-name="&lt;Path&gt;" class="cls-14" d="M352.94,182.1s-4.82,3.06-4.88,17.05c-.06,12.1-.3,33.32-.3,33.32s8.41,1.71,14.41-1.87c0,0-.68-30.31-.79-34.86-.13-5.2,1.39-9.62-1.54-11.09A44.72,44.72,0,0,0,352.94,182.1Z"/><path id="_Path_122" data-name="&lt;Path&gt;" class="cls-18" d="M369.77,231.8l-5.78-1c0,1,0,1.82,0,2.52a5.55,5.55,0,0,1-1.43,2.4,15.89,15.89,0,0,0-2.49,3.87c-.66,1.14-1.36,1.55-1.17,1.82a1.5,1.5,0,0,0,2,.21,10.49,10.49,0,0,0,1.85-1.67,13.91,13.91,0,0,1-1.27,4.27c-1.48,3.09-1.19,4.69,3.07,3.7,2.67-.62,4.39-2.77,5-9.12A49.06,49.06,0,0,0,369.77,231.8Z"/><path id="_Path_123" data-name="&lt;Path&gt;" class="cls-14" d="M357.05,183.46a23.72,23.72,0,0,1,5.11,2.54c1.27,1,8.66,22.2,8.95,24.11s-.81,22-.81,22a6.87,6.87,0,0,1-6.71.43l-1.18-20.12-5.85-15.23S353.65,188.9,357.05,183.46Z"/><polygon id="_Path_124" data-name="&lt;Path&gt;" class="cls-9" points="354.36 189.75 351.74 192.99 353.05 196.68 349.61 205.5 353.76 196.68 352.3 193.2 354.36 189.75"/><polygon id="_Path_125" data-name="&lt;Path&gt;" class="cls-9" points="337.01 188 337.58 191.35 335.31 194.31 338.46 204.24 336.02 194.41 338.12 191.66 337.01 188"/></g><g id="_Group_48" data-name="&lt;Group&gt;"><path id="_Path_126" data-name="&lt;Path&gt;" class="cls-3" d="M97.71,35.44l-2.89,1.11V30.19c0-5-4-6.26-8.4-3.73h0a17.49,17.49,0,0,0-7.91,13.71v.92a4.24,4.24,0,0,0-3.67.57h0a12.59,12.59,0,0,0-5.69,9.86v.42l-4,2.33a8.29,8.29,0,0,0-3.75,6.5c0,2.39,1.68,3.36,3.75,2.17L97.71,44.1a8.29,8.29,0,0,0,3.75-6.5C101.46,35.22,99.78,34.25,97.71,35.44Z"/><path id="_Path_127" data-name="&lt;Path&gt;" class="cls-3" d="M65,37.55l-5.24,3a6.31,6.31,0,0,0,0-.69V38.37c0-2.7-1.9-3.8-4.24-2.45A8.19,8.19,0,0,0,53,38.35c-.38-3.4-3-4.66-6.28-2.79a14,14,0,0,0-6.34,11V48.8A6,6,0,0,0,41,51.43L36.6,53.95A5.19,5.19,0,0,0,34.25,58c0,1.5,1.05,2.11,2.35,1.36L65,43a5.19,5.19,0,0,0,2.35-4.07C67.34,37.41,66.29,36.81,65,37.55Z"/></g></g></g></g></g></svg>