<svg width="311" height="55" viewBox="0 0 311 55" fill="none" xmlns="http://www.w3.org/2000/svg">
<path d="M35.9453 53.9766C40.5026 53.9766 43.3021 51.9258 44.3438 47.8242C44.6693 46.6523 44.8646 45.3177 44.9297 43.8203L42.3906 43.7227C41.9349 48.3451 40.6979 50.6888 38.6797 50.7539C37.1172 50.6237 36.3034 48.9635 36.2383 45.7734V25.2656C36.1081 15.2396 30.6068 10.194 19.7344 10.1289C11.8568 10.1289 6.71354 11.8867 4.30469 15.4023C3.58854 16.5091 3.23047 17.6159 3.23047 18.7227C3.23047 20.806 4.20703 22.1406 6.16016 22.7266C6.68099 22.8568 7.20182 22.9219 7.72266 22.9219C9.74089 22.9219 11.1406 21.8477 11.9219 19.6992C12.0521 19.3737 12.2148 18.8854 12.4102 18.2344C13.2565 15.6302 14.2982 13.9701 15.5352 13.2539C16.4466 12.7982 17.5534 12.5703 18.8555 12.5703C24.1289 12.7005 26.7982 16.1185 26.8633 22.8242V29.0742C11.2383 29.2695 2.61198 32.8177 0.984375 39.7188C0.789062 40.6302 0.691406 41.5742 0.691406 42.5508C0.691406 47.7591 2.9375 51.2422 7.42969 53C9.1224 53.651 10.9779 53.9766 12.9961 53.9766C17.944 53.9766 21.9154 52.2839 24.9102 48.8984C25.8867 47.7266 26.6354 46.4896 27.1562 45.1875C28.1328 50.9818 31.0625 53.9115 35.9453 53.9766ZM17 49.9727C13.4193 49.9727 11.3034 47.8568 10.6523 43.625C10.5221 42.8438 10.457 41.9974 10.457 41.0859C10.457 36.6589 12.8008 33.8594 17.4883 32.6875C19.8971 32.1016 23.0221 31.776 26.8633 31.7109V40.207C25.7565 44.7643 23.4779 47.7917 20.0273 49.2891C18.9857 49.7448 17.9766 49.9727 17 49.9727ZM66.1211 13.7422V11.3008H45.7109V13.7422H49.8125L61.9219 46.5547C63.2891 50.2005 64.5911 52.3164 65.8281 52.9023C66.6094 53.293 67.6185 53.4883 68.8555 53.4883H71.0039L84.9688 16.8672C85.75 15.0443 86.6615 14.0352 87.7031 13.8398C88.0286 13.7747 88.3542 13.7422 88.6797 13.7422C89.9167 13.7422 90.6003 13.4818 90.7305 12.9609C90.8607 12.5703 90.9258 12.0169 90.9258 11.3008H75.5938V13.7422H83.2109L71.1016 45.3828L59.3828 13.7422H66.1211ZM115.73 12.5703C119.897 12.5703 122.534 14.6862 123.641 18.918C123.966 20.1549 124.129 21.4245 124.129 22.7266C124.129 25.9167 122.794 27.8698 120.125 28.5859C118.628 28.9766 116.512 29.1068 113.777 28.9766L105.086 28.7812C105.346 20.4479 107.755 15.2721 112.312 13.2539C113.354 12.7982 114.493 12.5703 115.73 12.5703ZM133.211 43.332L130.867 42.5508C128.719 47.043 125.398 49.8099 120.906 50.8516C119.865 51.112 118.823 51.2422 117.781 51.2422C109.643 51.2422 105.411 44.7318 105.086 31.7109C105.086 31.6458 105.086 31.5807 105.086 31.5156L115.73 31.7109C124.65 31.9062 130.216 30.832 132.43 28.4883C133.471 27.2513 133.992 25.6888 133.992 23.8008C133.992 18.918 131.551 15.207 126.668 12.668C123.413 10.9753 119.734 10.1289 115.633 10.1289C107.885 10.1289 102.124 13.0911 98.3477 19.0156C95.9388 22.7917 94.7344 27.1862 94.7344 32.1992C94.7344 40.8581 97.8919 47.0755 104.207 50.8516C107.658 52.9349 111.564 53.9766 115.926 53.9766C123.283 53.9766 128.589 51.3398 131.844 46.0664C132.365 45.1549 132.82 44.2435 133.211 43.332Z" fill="#0075EA"/>
<path d="M159.188 50.5586H155.574L155.672 27.0234C156.128 21.75 158.211 18.0391 161.922 15.8906C163.289 15.1094 164.689 14.7188 166.121 14.7188C170.027 14.7188 172.534 16.6719 173.641 20.5781C173.966 21.8802 174.129 23.2474 174.129 24.6797V44.9922C174.129 47.8568 173.348 49.582 171.785 50.168C170.874 50.4284 169.604 50.5586 167.977 50.5586V53H190.242C190.242 51.5677 189.819 50.7865 188.973 50.6562C188.647 50.5911 188.257 50.5586 187.801 50.5586H183.602V25.9492C183.602 18.9831 181.193 14.2305 176.375 11.6914C174.487 10.6497 172.404 10.1289 170.125 10.1289C165.307 10.1289 161.271 12.0495 158.016 15.8906C156.974 17.1927 156.128 18.5924 155.477 20.0898L154.988 11.3008H139.559V13.7422H146.199V44.9922C146.199 47.9219 145.255 49.6471 143.367 50.168C142.456 50.4284 141.186 50.5586 139.559 50.5586V53H161.629C161.629 51.5677 161.206 50.7865 160.359 50.6562C160.034 50.5911 159.643 50.5586 159.188 50.5586ZM216.805 12.5703C220.971 12.5703 223.608 14.6862 224.715 18.918C225.04 20.1549 225.203 21.4245 225.203 22.7266C225.203 25.9167 223.868 27.8698 221.199 28.5859C219.702 28.9766 217.586 29.1068 214.852 28.9766L206.16 28.7812C206.421 20.4479 208.829 15.2721 213.387 13.2539C214.428 12.7982 215.568 12.5703 216.805 12.5703ZM234.285 43.332L231.941 42.5508C229.793 47.043 226.473 49.8099 221.98 50.8516C220.939 51.112 219.897 51.2422 218.855 51.2422C210.717 51.2422 206.486 44.7318 206.16 31.7109C206.16 31.6458 206.16 31.5807 206.16 31.5156L216.805 31.7109C225.724 31.9062 231.29 30.832 233.504 28.4883C234.546 27.2513 235.066 25.6888 235.066 23.8008C235.066 18.918 232.625 15.207 227.742 12.668C224.487 10.9753 220.809 10.1289 216.707 10.1289C208.96 10.1289 203.198 13.0911 199.422 19.0156C197.013 22.7917 195.809 27.1862 195.809 32.1992C195.809 40.8581 198.966 47.0755 205.281 50.8516C208.732 52.9349 212.638 53.9766 217 53.9766C224.357 53.9766 229.663 51.3398 232.918 46.0664C233.439 45.1549 233.895 44.2435 234.285 43.332ZM256.844 51.3398C261.271 51.3398 264.103 49.9401 265.34 47.1406C265.73 46.2943 265.926 45.4154 265.926 44.5039C265.926 41.5742 263.875 39.0677 259.773 36.9844C258.927 36.5286 257.527 35.8776 255.574 35.0312C250.431 32.8177 247.013 30.7669 245.32 28.8789C243.497 26.7956 242.586 24.3542 242.586 21.5547C242.586 16.6719 245.255 13.2865 250.594 11.3984C253.003 10.5521 255.639 10.1289 258.504 10.1289C263.191 10.1289 267.033 11.0404 270.027 12.8633C270.027 10.9753 270.516 9.90104 271.492 9.64062C271.818 9.57552 272.176 9.54297 272.566 9.54297V21.75H269.832C269.572 15.7604 266.284 12.7331 259.969 12.668C255.411 12.668 252.579 14.0677 251.473 16.8672C251.212 17.5833 251.082 18.332 251.082 19.1133C251.082 21.9128 253.068 24.3216 257.039 26.3398C257.885 26.7305 259.253 27.3164 261.141 28.0977C266.349 30.3112 269.799 32.362 271.492 34.25C273.445 36.4635 274.422 39.0352 274.422 41.9648C274.422 47.3034 271.622 50.9167 266.023 52.8047C263.745 53.5859 261.206 53.9766 258.406 53.9766C253.263 53.9115 248.868 52.8047 245.223 50.6562C245.223 52.349 244.799 53.3255 243.953 53.5859C243.562 53.651 243.107 53.6836 242.586 53.6836V38.8398H245.613C245.743 47.1081 249.487 51.2747 256.844 51.3398ZM279.695 13.9375H286.531V40.207C286.531 48.7357 290.079 53.3255 297.176 53.9766C297.762 54.0417 298.315 54.0742 298.836 54.0742C304.37 54.0742 308.048 51.3398 309.871 45.8711C310.197 44.8945 310.457 43.8854 310.652 42.8438L308.016 42.3555C306.583 48.1497 304.24 51.0794 300.984 51.1445C297.664 51.0143 295.971 48.5078 295.906 43.625V13.9375H310.066V11.4961H295.906V0.167969L286.531 2.21875V11.4961H279.695V13.9375Z" fill="white"/>
</svg>
