<svg id="text" xmlns="http://www.w3.org/2000/svg" width="100%" height="100%" viewBox="0 0 773 100"> <metadata><!--?xpacket begin="?" id="W5M0MpCehiHzreSzNTczkc9d"?--> <x:xmpmeta xmlns:x="adobe:ns:meta/" x:xmptk="Adobe XMP Core 5.6-c138 79.159824, 2016/09/14-01:09:01 "> <rdf:rdf xmlns:rdf="http://www.w3.org/1999/02/22-rdf-syntax-ns#"> <rdf:description rdf:about=""></rdf:description> </rdf:rdf> </x:xmpmeta> <!--?xpacket end="w"?--></metadata> <clipPath id="AClip"> <path id="A" d="M-0.017,100.014H19.9l9.041-22.883h43.37l9.324,22.883H101.98L58.893,0.005h-15.4ZM35.018,61.875L50.7,21.193,66.1,61.875H35.018Z"></path> </clipPath> <path id="AAnimate" class="writing" style="clip-path: url(#AClip); stroke-width: 23px; stroke-dasharray: 377; stroke-dashoffset: 377;" transform="translate(25, 0)" d="M5,108L43,20s8.416-24.334,17,1c10.514,24.562,32,80,32,80S12.77,120.618,10,68c60.007,3,67,1,67,1"></path> <metadata><!--?xpacket begin="?" id="W5M0MpCehiHzreSzNTczkc9d"?--> <x:xmpmeta xmlns:x="adobe:ns:meta/" x:xmptk="Adobe XMP Core 5.6-c138 79.159824, 2016/09/14-01:09:01 "> <rdf:rdf xmlns:rdf="http://www.w3.org/1999/02/22-rdf-syntax-ns#"> <rdf:description rdf:about=""></rdf:description> </rdf:rdf> </x:xmpmeta> <!--?xpacket end="w"?--></metadata> <clipPath id="VClip"> <path id="V" d="M39.657,99.994H55.206L96.005,0H76.6L48.216,75.56,20.684,0H0Z"></path> </clipPath> <path id="VAnimate" class="writing" style="clip-path: url(#VClip); stroke-width: 19px; stroke-dasharray: 269; stroke-dashoffset: 269;" transform="translate(152, 0)" d="M6-11L54,111H40L89-5"></path> <metadata><!--?xpacket begin="?" id="W5M0MpCehiHzreSzNTczkc9d"?--> <x:xmpmeta xmlns:x="adobe:ns:meta/" x:xmptk="Adobe XMP Core 5.6-c138 79.159824, 2016/09/14-01:09:01 "> <rdf:rdf xmlns:rdf="http://www.w3.org/1999/02/22-rdf-syntax-ns#"> <rdf:description rdf:about=""></rdf:description> </rdf:rdf> </x:xmpmeta> <!--?xpacket end="w"?--></metadata> <clipPath id="EClip"> <path id="E" class="cls-1" d="M-0.009,100.006H69V83.9H17.846V56.785H63.9v-16.1H17.846V16.107h48.6V0H-0.009v100Z"></path> </clipPath> <path id="EAnimate" class="writing" style="clip-path: url(#EClip); stroke-width: 20px; stroke-dasharray: 383; stroke-dashoffset: 383;" transform="translate(273, 0)" d="M73,8H9l1,84H73S-24.057,96.319-2,48c24.157,0.491,70,1,70,1"></path> <metadata><!--?xpacket begin="?" id="W5M0MpCehiHzreSzNTczkc9d"?--> <x:xmpmeta xmlns:x="adobe:ns:meta/" x:xmptk="Adobe XMP Core 5.6-c138 79.159824, 2016/09/14-01:09:01 "> <rdf:rdf xmlns:rdf="http://www.w3.org/1999/02/22-rdf-syntax-ns#"> <rdf:description rdf:about=""></rdf:description> </rdf:rdf> </x:xmpmeta> <!--?xpacket end="w"?--></metadata> <clipPath id="NClip"> <path id="N" class="cls-1" d="M-0.017,100H17.758v-76.7H18.04L67.416,100H89.987V-0.016H72.212v74.3H71.93L23.542-.016H-0.017V100Z"></path> </clipPath> <path id="NAnimate" class="writing" style="clip-path: url(#NClip); stroke-width: 26px; stroke-dasharray: 300; stroke-dashoffset: 300;" transform="translate(367, 0)" d="M9,101l1-75S5.4,8.837,9,8s11.961,5.368,14,8S68,82,68,82s5.528,11.547,12,9-0.11-12.473,0-21S82-4,82-4"></path> <metadata><!--?xpacket begin="?" id="W5M0MpCehiHzreSzNTczkc9d"?--> <x:xmpmeta xmlns:x="adobe:ns:meta/" x:xmptk="Adobe XMP Core 5.6-c138 79.159824, 2016/09/14-01:09:01 "> <rdf:rdf xmlns:rdf="http://www.w3.org/1999/02/22-rdf-syntax-ns#"> <rdf:description rdf:about=""></rdf:description> </rdf:rdf> </x:xmpmeta> <!--?xpacket end="w"?--></metadata> <clipPath id="EClip"> <path id="E" class="cls-1" d="M-0.009,100.006H69V83.9H17.846V56.785H63.9v-16.1H17.846V16.107h48.6V0H-0.009v100Z"></path> </clipPath> <path id="EAnimate" class="writing" style="clip-path: url(#EClip); stroke-width: 20px; stroke-dasharray: 383; stroke-dashoffset: 383;" transform="translate(482, 0)" d="M73,8H9l1,84H73S-24.057,96.319-2,48c24.157,0.491,70,1,70,1"></path> <metadata><!--?xpacket begin="?" id="W5M0MpCehiHzreSzNTczkc9d"?--> <x:xmpmeta xmlns:x="adobe:ns:meta/" x:xmptk="Adobe XMP Core 5.6-c138 79.159824, 2016/09/14-01:09:01 "> <rdf:rdf xmlns:rdf="http://www.w3.org/1999/02/22-rdf-syntax-ns#"> <rdf:description rdf:about=""></rdf:description> </rdf:rdf> </x:xmpmeta> <!--?xpacket end="w"?--></metadata> <clipPath id="SClip"> <path id="S" d="M66.466,9.816a34.454,34.454,0,0,0-12.9-7.528A48.456,48.456,0,0,0,38.763,0a49.666,49.666,0,0,0-13.1,1.747,35.405,35.405,0,0,0-11.395,5.31A27.807,27.807,0,0,0,6.216,16a25.335,25.335,0,0,0-3.07,12.77q0,8.468,3.412,13.509a26.683,26.683,0,0,0,8.461,8.065,46.807,46.807,0,0,0,11.054,4.772q6,1.748,11.054,3.7a30.3,30.3,0,0,1,8.461,4.772Q49,66.407,49,71.65a10.84,10.84,0,0,1-1.5,5.713,12.707,12.707,0,0,1-3.958,4.1,18.732,18.732,0,0,1-5.459,2.419,23.07,23.07,0,0,1-6,.806,23.474,23.474,0,0,1-10.849-2.621,21.555,21.555,0,0,1-8.256-7.326L0.007,87.108a33.367,33.367,0,0,0,14.329,9.947,51.417,51.417,0,0,0,17.331,2.957,47.787,47.787,0,0,0,13.51-1.882,33.514,33.514,0,0,0,11.258-5.646,27.323,27.323,0,0,0,7.71-9.477,29.473,29.473,0,0,0,2.866-13.375q0-8.469-3.412-13.577a27.192,27.192,0,0,0-8.461-8.2,45.362,45.362,0,0,0-11.054-4.839q-6.007-1.745-11.054-3.629a33.628,33.628,0,0,1-8.461-4.436,8.666,8.666,0,0,1-3.412-7.393,10.921,10.921,0,0,1,1.365-5.578A11.316,11.316,0,0,1,26.14,18.15,15.912,15.912,0,0,1,31.189,16a24.765,24.765,0,0,1,5.8-.672,25.849,25.849,0,0,1,9.621,1.815,15.839,15.839,0,0,1,7.3,5.713Z"></path> </clipPath> <path id="SAnimate" class="writing" style="clip-path: url(#SClip); stroke-width: 21px; stroke-dasharray: 209; stroke-dashoffset: 209;" transform="translate(576, 0)" d="M67,22C50.87,3.473,24.614,3.5,14,19,8.416,35.7,17.982,41.613,28,47c12.083,6.028,24.13,1.312,30,18,1.641,15.36-2.19,20.241-17,26C22.36,96.711,7.151,86.158,0,73"></path> <metadata><!--?xpacket begin="?" id="W5M0MpCehiHzreSzNTczkc9d"?--> <x:xmpmeta xmlns:x="adobe:ns:meta/" x:xmptk="Adobe XMP Core 5.6-c138 79.159824, 2016/09/14-01:09:01 "> <rdf:rdf xmlns:rdf="http://www.w3.org/1999/02/22-rdf-syntax-ns#"> <rdf:description rdf:about=""></rdf:description> </rdf:rdf> </x:xmpmeta> <!--?xpacket end="w"?--></metadata> <clipPath id="TClip"> <path id="T" class="cls-1" d="M30.974,99.988h18v-83.9h31v-16.1H-0.03v16.1h31v83.9Z"></path> </clipPath> <path id="TAnimate" class="writing" style="clip-path: url(#TClip); stroke-width: 20px; stroke-dasharray: 235; stroke-dashoffset: 235;" transform="translate(668, 0)" d="M-4,8c2.135,0.041,87,0,87,0L41-4V105"></path> </svg>