<svg xmlns="http://www.w3.org/2000/svg" viewBox="0 0 1301.98 958.64"><defs><style>.cls-1{isolation:isolate;}.cls-2{opacity:0.12;mix-blend-mode:multiply;}.cls-3{fill:#606060;}.cls-4{fill:#305399;}.cls-5{fill:#3b455a;}.cls-6{fill:#7db5db;}.cls-7{fill:#fff;}.cls-8{fill:#ebeded;}.cls-9{fill:#587bc9;}.cls-10{fill:#eac5b0;}.cls-11{fill:#1a3151;}.cls-12{fill:#acddf6;}.cls-13{fill:#d7e8f4;}.cls-14{opacity:0.1;}.cls-15{fill:#f7f7f7;}.cls-16{fill:#f5f5f5;}.cls-17{fill:#bcbec0;}.cls-18{fill:#ebecec;}.cls-19{fill:#c5c6c7;}.cls-20{fill:#9b9c9d;}.cls-21{opacity:0.2;}.cls-22{opacity:0.3;}.cls-23{opacity:0.55;}</style></defs><title>Asset 1svg</title><g class="cls-1"><g id="Layer_2" data-name="Layer 2"><g id="shadow"><g class="cls-2"><path class="cls-3" d="M1241.1,739.95H182.62c-33.48,0-60.87,16.6-60.87,36.88,0,14,13.14,26.32,32.33,32.54H60.87C27.39,809.37,0,826,0,846.26s27.39,36.88,60.87,36.88H93.35c-9.07,6.45-14.57,14.78-14.57,23.87v14.75c0,20.29,27.39,36.88,60.87,36.88H1182.38c15.73,0,33.1-3.53,46.06-13.12,14.75-10.92,20.45-31.67,12.47-48.55a29.71,29.71,0,0,0-2.73-4.66c-11.49-16-34.38-21.62-52.95-22.14q-1.43,0-2.85,0l-15.9.82a33.72,33.72,0,0,0,20.05-7.77c16.08-14.18,8.42-50-15.76-50l70.33.5c33.48,0,60.87-16.6,60.87-36.88S1274.58,739.95,1241.1,739.95Z"/></g></g><g id="object"><path class="cls-4" d="M1152.93,175.34c.31-.16.61-.33.92-.48l-.88.38c-.45-.89-1-1.76-1.49-2.61h0a34.09,34.09,0,0,0-18.06-14.12A29.91,29.91,0,0,0,1121.89,183a29.22,29.22,0,0,0,2.81,11.31h0l.07.13c.15.31.31.62.47.93,2.46,5.05,12.47,27.67,8.12,53.26-4.94,29.08,3.67,36.68,3.67,36.68s26.85,2.6,42-4.59C1193.75,273.68,1172,211.58,1152.93,175.34Z"/><polygon class="cls-4" points="1293.33 844.57 1294.4 855.17 1275.15 868.38 1263.91 859.09 1275 844.5 1292 838.5 1293.33 844.57"/><polygon class="cls-5" points="1298.85 516.48 1293.04 548.5 1274.23 664.28 1294 840.95 1271 844.95 1221 685.95 1211 620.81 1211.3 513.95 1298.85 516.48"/><polygon class="cls-5" points="1129.38 531.39 1162.15 846.42 1185 846.95 1200 680.95 1229.46 523.58 1129.38 531.39"/><polygon class="cls-4" points="1183.97 846.26 1183.62 854.38 1159.29 866.46 1150.66 855.17 1164.98 845.64 1183.97 846.26"/><path class="cls-6" d="M1297.49,468c-.2-1-.46-2-.74-3-1.16-8.76-4-24.48-10.28-52.69l-.93-4.13a838,838,0,0,0-37.24-118.78c-19.47-36.31-38.84-47.89-38.84-47.89l.28-.37c-14.46.59-29.77,3.69-41.51,3.69-25.82,8.94-26,71.16-28.4,128.23h0l-8.11,75.46c-.29,1.66-.58,3.33-.88,5v0c-.08,1.66-.14,3.23-.17,4.74L1122,538.95s61,31,113,24,62-7,62-7S1306,509,1297.49,468Z"/><path class="cls-7" d="M1167,245.95l-6,22s-6,171-6,177-10.79,103.5-10.79,103.5l33.24,10.23,17.55,5.27,16,0v-187l-27.14-133.34S1173,242.95,1167,245.95Z"/><path class="cls-8" d="M1211.5,564.48l-16.64-.05-17.55-5.27-33.64-10.35,0-.41c.11-1,10.79-97.54,10.79-103.45s5.94-175.31,6-177l0-.11,6.06-22.22.2-.1c6-3,16.67-2.42,17.12-2.39l.38,0,.08.38L1211.5,376.9Zm-16.43-1,15.43,0V377l-27-132.91c-1.94-.08-10.81-.28-16,2.21L1161.5,268c-.14,3.94-6,171-6,176.92s-9.89,95.34-10.75,103.14l32.85,10.11Z"/><polygon class="cls-6" points="1157.45 253.25 1086 363.95 1000 402.95 1005 415.95 1105 397.95 1153 346.95 1157.45 253.25"/><path class="cls-9" d="M190.06,229.27,213,238.95l82,59v-86c0,1,24,0,24,0l14,106-29.36,27-85.64-41Z"/><polygon class="cls-5" points="250.6 485.38 258.1 630.46 233.7 829.88 204.3 828.25 196.61 635.48 159.59 473.16 250.6 485.38"/><polygon class="cls-5" points="184.9 452.25 166.85 638.53 134.87 832.47 107.24 830.71 99.82 640.04 74.12 463.62 184.9 452.25"/><path class="cls-9" d="M49.72,486.23c-1.62,17.12-2.86,40.26,3,41.55a4.94,4.94,0,0,0,3.2-.81C66.49,521.51,74.34,513.3,84.81,508c11-5.51,23.23-8,35.19-9.42a297.6,297.6,0,0,1,54-2.19c14.13.78,28.2,3.18,42.16,5.54,11.61,2,22.19,6.66,34.17,6.62a71.11,71.11,0,0,0,35.58-9.73,2.21,2.21,0,0,0,1-1,2.62,2.62,0,0,0,0-1.61c-1.92-7.84-3.15-15.56-7.2-22.24-4.53-7.46-7.45-16.72-10.5-25.05-6.36-17.36-12.22-35.5-16.2-53.8-6.23-24.92-13.64-49.3-19.6-74.28-4.13-17.32-7.75-34.9-13.87-51.48-4.79-13-13.62-32.09-25.5-38.53-4-2.18-8.6-2.69-13.07-3.17l-40.68-4.36c-4.94-.53-10.09-1-14.78.92-7,2.92-11.45,10.61-15.35,17.79C92.68,274.28,80.43,309.5,72.3,346.17,68.06,365.31,64,384.5,60.55,403.82c-3.87,21.55-7,43.25-9,65.08C51.34,471.32,50.48,478.1,49.72,486.23Z"/><path class="cls-8" d="M154.83,300.06c.13,7.74-1.74,15.37-3.41,22.93-10.15,46.06-27.62,130.3-37.77,176.36,36.52,2.41,78.62,3.21,115.14,5.62,0-17.54,1.71-71.66,1.69-89.2,0-11.25,0-22.53-1.57-33.68-2.49-18-8.88-35.22-15.23-52.29l-35.21-94.63a12.45,12.45,0,0,0-2.59-4.71c-1.55-1.53-3.77-2.17-5.9-2.71-10.3-2.59-22-5-32.57-4.25-3.33,9.35,4.72,27.73,7.64,36.88C149.31,273.69,154.66,289.72,154.83,300.06Z"/><polygon class="cls-4" points="230.14 829.32 249.03 840.04 246.56 851.29 205.06 846.73 205.87 828.38 230.14 829.32"/><polygon class="cls-4" points="128.95 831.88 144.67 847.58 138.5 858.14 103.66 844.2 108.09 830.22 128.95 831.88"/><path class="cls-10" d="M163.45,232.16a3.79,3.79,0,0,1-1.34.69,7.26,7.26,0,0,1-3.12-.06l-12.64-2.09c2-12.91-5.46-16.2-12.47-24.88s-4.28-20.11-3.38-30.44c.25-2.88.53-5.84,1.87-8.4,2.35-4.49,7.45-6.8,12.35-8.08,12.52-3.27,26.59-1.68,37.14,5.82a19.76,19.76,0,0,1,6.83,7.59c2.2,4.83,1.33,10.44.41,15.67-1.41,8-4.16,15.87-9,22.48-4.55,6.15-12.81,8.82-14.1,16.4C165.62,228.8,164.92,231,163.45,232.16Z"/><path class="cls-10" d="M160.9,233.5a12.28,12.28,0,0,1-2-.22l-13.13-2.17.08-.49c1.49-9.69-2.49-13.85-7.53-19.12-1.57-1.65-3.2-3.35-4.84-5.37-6.11-7.57-5-16.85-4-25.83.19-1.64.38-3.34.52-5,.24-2.77.52-5.9,1.92-8.59,2-3.86,6.28-6.66,12.67-8.33,13.4-3.5,27.44-1.3,37.56,5.89a20,20,0,0,1,7,7.79c2.34,5.15,1.29,11.14.45,16-1.57,9-4.65,16.61-9.14,22.69a34.49,34.49,0,0,1-6.31,6.07c-3.57,2.89-6.93,5.61-7.7,10.12-.45,2.68-1.36,4.57-2.68,5.62h0a4.3,4.3,0,0,1-1.52.78A4.92,4.92,0,0,1,160.9,233.5Zm-14-3.21,12.16,2a6.91,6.91,0,0,0,2.9.07,3.31,3.31,0,0,0,1.17-.6c1.11-.88,1.91-2.61,2.32-5,.83-4.88,4.34-7.72,8.05-10.73a33.75,33.75,0,0,0,6.13-5.88c4.4-6,7.41-13.44,9-22.27.82-4.68,1.84-10.51-.37-15.38a19,19,0,0,0-6.66-7.39c-9.88-7-23.61-9.17-36.72-5.74-6.1,1.59-10.15,4.23-12,7.83-1.31,2.51-1.58,5.54-1.81,8.22-.14,1.65-.34,3.35-.53,5-1,8.77-2,17.84,3.8,25.09,1.61,2,3.22,3.68,4.78,5.31C144.18,216.19,148.27,220.46,146.9,230.29Z"/><path class="cls-11" d="M189.17,178.55c-.87,3.23-2.54,6.46-1.9,9.74,5.26-1.52,8.89-6.66,11-12a19.07,19.07,0,0,0,1.58-7.55,9,9,0,0,0-3.07-6.79c-2.75-2.17-7.89-1.6-8.88,2.05S190.48,173.69,189.17,178.55Z"/><path class="cls-4" d="M218,151.17a11.62,11.62,0,0,0-4.66-10c-2.92-2.17-6.31-4-8-7.33-1.3-2.57-1.37-5.69-2.66-8.27-2.34-4.67-7.8-6.27-12.54-8-11.85-4.42-18.13-9.17-31.09-4.81-9.22,3.1-20.95,3-29.59,7.78a29.48,29.48,0,0,0-9.38,9c-9.1,12.89-12,31.47-7.1,45.58a56.58,56.58,0,0,0,4.1,8.89c3.11,5.61,6.41,12.5,12.24,15.44.49-2.55,2.47-3.89,3.19-6.39a20,20,0,0,0,.45-5.59c0-7.3-1.74-18.92,5.7-22.2,9.41-4.14,26.47.77,35.15,5,7.68,3.78,20.7,8.84,29.23,5.56C210.93,172.8,217.86,159.53,218,151.17Z"/><g id="_Group_" data-name="&lt;Group&gt;"><g id="_Group_2" data-name="&lt;Group&gt;"><g id="_Group_3" data-name="&lt;Group&gt;"><path class="cls-4" d="M941.76,850.92l-499.31-.39A19.41,19.41,0,0,1,423,831.19l.64-811.87A19.41,19.41,0,0,1,443.11,0L942.43.39a19.41,19.41,0,0,1,19.46,19.35l-.64,811.87A19.41,19.41,0,0,1,941.76,850.92Z"/></g><g id="_Group_4" data-name="&lt;Group&gt;"><rect class="cls-12" x="451.1" y="45.32" width="481.58" height="726.37"/></g><g id="_Group_5" data-name="&lt;Group&gt;"><rect class="cls-7" x="663.3" y="805.8" width="57.67" height="13.21"/></g></g><g id="_Group_6" data-name="&lt;Group&gt;"><polygon class="cls-6" points="451.31 145.96 450.81 771.5 932.4 771.87 451.31 145.96"/></g><rect class="cls-13" x="473" y="427.95" width="197" height="318"/><rect class="cls-13" x="705" y="427.95" width="197" height="318"/></g><g class="cls-14"><path d="M910,92.95H424v403.6H910a2.3,2.3,0,0,0,2.19-2.39V95.34A2.3,2.3,0,0,0,910,92.95Z"/></g><path class="cls-15" d="M306.08,75.95H893.14a2.25,2.25,0,0,1,2.08,2.39V477.16a2.25,2.25,0,0,1-2.08,2.39H368.7c-35.73,0-64.7-33.29-64.7-74.35V78.34A2.25,2.25,0,0,1,306.08,75.95Z"/><g class="cls-14"><path d="M700.45,420.76a15.41,15.41,0,0,0-15.32,15.41L685,690.53A15.41,15.41,0,0,0,700.32,706l260.68.11V420.88Z"/></g><path class="cls-9" d="M1091.7,691.13,685.32,691A15.41,15.41,0,0,1,670,675.53l.11-254.36a15.41,15.41,0,0,1,15.32-15.41l406.37.18a15.41,15.41,0,0,1,15.31,15.42L1107,675.72A15.41,15.41,0,0,1,1091.7,691.13Z"/><g class="cls-14"><path d="M687.38,685.94l399.33.17A15.41,15.41,0,0,0,1102,670.7l.06-144.63C994.56,643,783.34,676.36,687.38,685.94Z"/></g><rect class="cls-6" x="692.17" y="504.02" width="76.44" height="57.26" rx="1.78" ry="1.78"/><g class="cls-14"><path d="M768.6,551v-23.4C750,545.48,715.87,554.2,695,558a10.14,10.14,0,0,0,7.38,3.22l56,0A10.27,10.27,0,0,0,768.6,551Z"/></g><rect class="cls-8" x="692.14" y="580.64" width="88.37" height="28.26"/><rect class="cls-8" x="790.71" y="580.68" width="88.37" height="28.26"/><rect class="cls-8" x="889.29" y="580.72" width="88.37" height="28.26"/><rect class="cls-8" x="987.86" y="580.77" width="88.37" height="28.26"/><path class="cls-16" d="M721.23,474.59A15.61,15.61,0,0,1,710,479.35a15.83,15.83,0,0,1,0-31.66,15.64,15.64,0,0,1,11.23,4.73l-2,1.93a12.95,12.95,0,1,0,0,18.34Z"/><path class="cls-16" d="M710,479.85h0a16.05,16.05,0,0,1-11.46-4.8,16.36,16.36,0,0,1,0-23.07A16.06,16.06,0,0,1,710,447.2h0a16.13,16.13,0,0,1,11.59,4.89l.34.36-2.75,2.6-.34-.33a12.51,12.51,0,0,0-8.84-3.65h0a12.24,12.24,0,0,0-8.72,3.64A12.46,12.46,0,0,0,710,476h0a12.6,12.6,0,0,0,8.84-3.65l.34-.31,2.8,2.54-.35.37A16.2,16.2,0,0,1,710,479.85Zm0-31.66a15.06,15.06,0,0,0-10.75,4.49,15.36,15.36,0,0,0,0,21.66,15.06,15.06,0,0,0,10.75,4.5h0a15.25,15.25,0,0,0,10.55-4.24l-1.36-1.24A13.44,13.44,0,0,1,710,477h0a13.46,13.46,0,0,1-9.43-23,13.23,13.23,0,0,1,9.43-3.94h0a13.4,13.4,0,0,1,9.18,3.6l1.33-1.26A15.18,15.18,0,0,0,710,448.2Z"/><path class="cls-16" d="M726.12,478.95V448.11h9.19a8.58,8.58,0,0,1,2.61,16.73l7,14.1h-3.23L735,465.26h-6v13.69ZM729,462.38h6.33a5.69,5.69,0,0,0,0-11.39H729Z"/><path class="cls-16" d="M745.76,479.46h-4.34l-6.77-13.69h-5.15v13.69h-3.86V447.61h9.69a9.08,9.08,0,0,1,3.31,17.52Zm-3.72-1h2.11l-6.92-13.9.56-.18a8.08,8.08,0,0,0-2.45-15.76h-8.69v29.83h1.86V464.76h6.77Zm-6.71-15.57h-6.83V450.49h6.83a6.2,6.2,0,0,1,6.17,6.22,6.2,6.2,0,0,1-6.18,6.17Zm-5.83-1h5.83a5.2,5.2,0,0,0,5.18-5.17,5.26,5.26,0,0,0-5.17-5.22H729.5Z"/><path class="cls-16" d="M751.62,451v8.63h11v2.88h-11v13.57h12.62V479h-15.6V448.12h15.6V451Z"/><path class="cls-16" d="M764.72,479.46h-16.6V447.62h16.6v3.88H752.12v7.63h11V463h-11v12.57h12.62Zm-15.6-1h14.6v-1.88H751.11V462h11v-1.88h-11V450.5h12.62v-1.88h-14.6Z"/><path class="cls-16" d="M769.53,479V448.13h6.86c9.47,0,15.8,5.68,15.8,15.34S785.87,479,776.39,479Zm2.86-2.88h4c7.88,0,12.95-4.52,13-12.62S784.29,451,776.4,451h-4Z"/><path class="cls-16" d="M776.4,479.47H769V447.63h7.36c4.84,0,8.92,1.45,11.8,4.19s4.5,6.83,4.5,11.65-1.56,8.89-4.51,11.73S781.22,479.47,776.4,479.47Zm-6.37-1h6.37c4.56,0,8.39-1.38,11.1-4s4.2-6.45,4.2-11-1.45-8.32-4.19-10.93-6.53-3.91-11.11-3.91H770Zm6.37-1.87h-4.51V450.51h4.5c8.42,0,13.44,4.85,13.44,13,0,4.07-1.27,7.42-3.68,9.71S780.45,476.59,776.4,476.59Zm-3.51-1h3.51c3.78,0,6.92-1.08,9.08-3.13s3.36-5.2,3.37-9c0-7.6-4.53-12-12.44-12h-3.5Z"/><path class="cls-16" d="M800,479h-2.86V448.14H800Z"/><path class="cls-16" d="M800.45,479.48h-3.86V447.64h3.86Zm-2.86-1h1.86V448.65h-1.86Z"/><path class="cls-16" d="M822.14,451h-8v28h-2.86V451h-8v-2.88h18.91Z"/><path class="cls-16" d="M814.62,479.49h-3.86v-28h-8v-3.88h19.91v3.88h-8Zm-2.86-1h1.86v-28h8v-1.88H803.73v1.88h8Z"/><path class="cls-16" d="M863,474.65a15.6,15.6,0,0,1-11.27,4.76,15.83,15.83,0,0,1,0-31.66A15.64,15.64,0,0,1,863,452.49l-2,1.93a12.95,12.95,0,1,0,0,18.34Z"/><path class="cls-16" d="M851.74,479.91h0a16.06,16.06,0,0,1-11.46-4.8,16.36,16.36,0,0,1,0-23.07,16.06,16.06,0,0,1,11.46-4.79h0a16.13,16.13,0,0,1,11.59,4.89l.34.36-2.75,2.6-.34-.33a12.51,12.51,0,0,0-8.84-3.65h0a12.45,12.45,0,0,0,0,24.9h0a12.6,12.6,0,0,0,8.84-3.65l.34-.31,2.8,2.54-.35.37A16.21,16.21,0,0,1,851.74,479.91Zm0-31.66A15.06,15.06,0,0,0,841,452.75a15.36,15.36,0,0,0,0,21.66,15.06,15.06,0,0,0,10.75,4.5h0a15.25,15.25,0,0,0,10.55-4.24l-1.36-1.24a13.44,13.44,0,0,1-9.18,3.6h0a13.45,13.45,0,0,1,0-26.9h0a13.4,13.4,0,0,1,9.18,3.6l1.33-1.26a15.18,15.18,0,0,0-10.52-4.22Z"/><path class="cls-16" d="M880.57,448.18,895.22,479h-3.14l-4.61-9.66H872.81L868.23,479H865l14.71-30.83Zm-6.38,18.29h11.88L880.16,454Z"/><path class="cls-16" d="M896,479.52h-4.25l-4.61-9.66h-14l-4.58,9.66h-4.29l15.19-31.83h1.45Zm-3.62-1h2l-14.17-29.84h-.18l-14.24,29.83h2.08l4.58-9.66h15.29ZM886.87,467H873.4l6.76-14.16ZM875,466h10.3l-5.13-10.84Z"/><path class="cls-16" d="M898.89,479V448.19h9.19a8.58,8.58,0,0,1,2.61,16.73l7,14.1h-3.23l-6.77-13.69h-6V479Zm2.87-16.57h6.33a5.69,5.69,0,0,0,0-11.39h-6.33Z"/><path class="cls-16" d="M918.53,479.53h-4.34l-6.77-13.69h-5.15v13.69h-3.86V447.69h9.69a9.08,9.08,0,0,1,3.31,17.52Zm-3.72-1h2.11L910,464.63l.56-.18a8.08,8.08,0,0,0-2.46-15.76h-8.69v29.83h1.86V464.83H908ZM908.09,463h-6.83V450.57h6.83a6.19,6.19,0,0,1,0,12.39Zm-5.83-1h5.83a5.18,5.18,0,0,0,5.18-5.17,5.27,5.27,0,0,0-5.17-5.22h-5.83Z"/><path class="cls-16" d="M921.39,479V448.2h6.86c9.47,0,15.8,5.68,15.8,15.34S937.73,479,928.25,479Zm2.86-2.88h4c7.88,0,12.95-4.52,13-12.62s-5.06-12.46-12.94-12.46h-4Z"/><path class="cls-16" d="M928.26,479.53h-7.37V447.7h7.36c10.06,0,16.3,6.07,16.3,15.84,0,4.84-1.56,8.89-4.51,11.73S933.08,479.53,928.26,479.53Zm-6.37-1h6.37c4.56,0,8.39-1.38,11.1-4s4.2-6.45,4.2-11c0-9.15-5.86-14.84-15.3-14.84h-6.36Zm6.37-1.87h-4.51V450.58h4.5c8.42,0,13.44,4.85,13.44,13,0,4.07-1.27,7.42-3.68,9.71S932.31,476.66,928.26,476.66Zm-3.51-1h3.51c3.78,0,6.92-1.08,9.08-3.13s3.36-5.2,3.37-9c0-7.6-4.53-12-12.44-12h-3.5Z"/><path class="cls-6" d="M994,466.55a26.43,26.43,0,0,1,11.35-21.73,26,26,0,0,0-14.9-4.69,26.42,26.42,0,0,0,0,52.84,26,26,0,0,0,14.91-4.68A26.43,26.43,0,0,1,994,466.55Z"/><path class="cls-17" d="M1023.8,466.56a26.43,26.43,0,0,1,11.35-21.73,26,26,0,0,0-29.81,0,26.5,26.5,0,0,1,0,43.46,26,26,0,0,0,29.81,0A26.43,26.43,0,0,1,1023.8,466.56Z"/><path class="cls-13" d="M1016.66,466.56a26.43,26.43,0,0,0-11.33-21.74,26.5,26.5,0,0,0,0,43.46A26.43,26.43,0,0,0,1016.66,466.56Z"/><path class="cls-5" d="M1050.06,440.15a26,26,0,0,0-14.91,4.68,26.5,26.5,0,0,1,0,43.46A26,26,0,0,0,1050,493a26.42,26.42,0,0,0,0-52.84Z"/><path class="cls-6" d="M1046.47,466.57a26.43,26.43,0,0,0-11.33-21.74,26.5,26.5,0,0,0,0,43.46A26.43,26.43,0,0,0,1046.47,466.57Z"/><rect class="cls-18" x="889.27" y="629.13" width="186.95" height="8.56"/><rect class="cls-19" x="933.45" y="647.56" width="142.76" height="8.56"/><path class="cls-18" d="M768.62,515.34v-2.05l-37.2,0V504h-2v9.25l-37.2,0v2.05l37.2,0v8.81l-37.2,0v2.05l37.2,0v.08l1.09-.08c.38,0,9.13-.58,9.91,6.21a5.24,5.24,0,0,1-1.26,3.7c-1.58,1.84-4.46,2.79-8.56,2.84l-38.39,0V541l37.38,0v9l-37.38,0V552l37.38,0v9.25h2V552l37,0v-2.1l-37,0v-9c4.19-.2,7.24-1.39,9.07-3.52a7.32,7.32,0,0,0,1.75-4.27h26.2v-2.05H742.22c-1.26-5.5-7-7-10.81-7v-8.78Z"/><path class="cls-19" d="M1076.21,637.74v-8.56l-136.32-.06q-11.57,4.49-23.25,8.55Z"/><path class="cls-20" d="M1076.24,580.79l-40,0a473.33,473.33,0,0,1-48.43,27.36V609l88.37,0Z"/><g class="cls-21"><path class="cls-7" d="M675.23,423.74l0,44.21c1.17-18.77,10.16-59.63,66.3-59.6l-51,0A15.41,15.41,0,0,0,675.23,423.74Z"/></g><path class="cls-9" d="M123.13,225.51l11.37-2.14L189,330.95l110,28v20s-129-9-127-7-70-103-70-103l13.62-36Z"/><polygon class="cls-10" points="299 361.45 314 354.95 336 363.95 330 374.95 299 378.95 299 361.45"/><path class="cls-10" d="M298.5,379.52v-18.4L314,354.41l22.71,9.29-6.39,11.71Zm1-17.74v16.6l30.18-3.89,5.61-10.29L314,355.49Z"/><polygon class="cls-10" points="299 212.38 294 194.95 303.64 183.95 317 183.95 317 189.95 303.64 195.14 303.64 212.38 299 212.38"/><path class="cls-10" d="M304.14,212.88h-5.51l-5.18-18.05,10-11.38H317.5v6.84l-13.36,5.19Zm-4.76-1h3.76V194.79l13.36-5.19v-5.16H303.86l-9.31,10.62Z"/><g id="_Group_7" data-name="&lt;Group&gt;"><g id="_Group_8" data-name="&lt;Group&gt;"><g id="_Group_9" data-name="&lt;Group&gt;"><g id="_Group_10" data-name="&lt;Group&gt;"><path class="cls-5" d="M509.45,282.48H490.84V220.88a48.72,48.72,0,1,0-97.44,0v61.61H374.78V220.88a67.33,67.33,0,1,1,134.67,0Z"/></g></g><g id="_Group_11" data-name="&lt;Group&gt;"><g id="_Group_12" data-name="&lt;Group&gt;"><path class="cls-6" d="M537.94,375.72a7.22,7.22,0,0,1-7.22,7.22H353.5a7.22,7.22,0,0,1-7.22-7.22V260.47a7.22,7.22,0,0,1,7.22-7.22H530.73a7.22,7.22,0,0,1,7.22,7.22Z"/></g></g></g></g><g class="cls-14"><path d="M537.94,375.72V305.11c-58.39,49.44-142.57,68-190.28,74.84a7.19,7.19,0,0,0,5.84,3H530.73A7.22,7.22,0,0,0,537.94,375.72Z"/></g><path class="cls-5" d="M458,298.57a15.84,15.84,0,1,0-25.26,12.72l-5,35.85h28.92l-5-35.85A15.82,15.82,0,0,0,458,298.57Z"/><g class="cls-22"><path class="cls-7" d="M352.33,266.91v24.82c.66-10.54,5.72-33.47,37.42-33.47H361A8.67,8.67,0,0,0,352.33,266.91Z"/></g><g class="cls-14"><path d="M427.66,347.14s21.46-6.07,23.88-35.85l5,35.85Z"/></g><path class="cls-5" d="M577,204a13.6,13.6,0,0,1-9.91-3.94,14.45,14.45,0,0,1,0-20,14.41,14.41,0,0,1,19.8,0,14.47,14.47,0,0,1,0,20A13.6,13.6,0,0,1,577,204Zm6-7.47a10.29,10.29,0,0,0,0-13,8.67,8.67,0,0,0-12,0,10.19,10.19,0,0,0,0,13,8.65,8.65,0,0,0,12,0Z"/><path class="cls-5" d="M600.74,182.08v3.24q2.07-3.55,6.71-3.55a8,8,0,0,1,6,2.44,9.37,9.37,0,0,1,2.34,6.77v12.72h-5.46V191.76a5.4,5.4,0,0,0-1.29-3.88,4.63,4.63,0,0,0-3.51-1.35,4.69,4.69,0,0,0-3.53,1.35,5.35,5.35,0,0,0-1.31,3.88v11.94h-5.5V182.08Z"/><path class="cls-5" d="M621.49,203.69V174.82H627v28.87Z"/><path class="cls-5" d="M638.93,176.58a3.33,3.33,0,1,1-1-2.38A3.24,3.24,0,0,1,638.93,176.58Zm-6.09,27.12V182.08h5.5v21.62Z"/><path class="cls-5" d="M649.7,182.08v3.24q2.07-3.55,6.71-3.55a8,8,0,0,1,6,2.44A9.37,9.37,0,0,1,664.8,191v12.72h-5.46V191.76a5.4,5.4,0,0,0-1.29-3.88,4.63,4.63,0,0,0-3.51-1.35,4.69,4.69,0,0,0-3.53,1.35,5.35,5.35,0,0,0-1.31,3.88v11.94h-5.5V182.08Z"/><path class="cls-5" d="M679.59,204a10.22,10.22,0,0,1-7.69-3.06,11.15,11.15,0,0,1-3-8.1,11,11,0,0,1,3-8.06,10.38,10.38,0,0,1,7.73-3,10.73,10.73,0,0,1,7.78,2.95,10.44,10.44,0,0,1,3,7.86,13.42,13.42,0,0,1-.16,2.11H674.56a5.13,5.13,0,0,0,1.56,3.39,4.86,4.86,0,0,0,3.47,1.29A4.55,4.55,0,0,0,683.8,197h5.93a9.49,9.49,0,0,1-3.63,5A10.8,10.8,0,0,1,679.59,204Zm3.61-16.31a5.16,5.16,0,0,0-3.53-1.29,4.88,4.88,0,0,0-3.45,1.29,5.45,5.45,0,0,0-1.66,3.43h10.22A4.71,4.71,0,0,0,683.2,187.7Z"/><path class="cls-5" d="M706.51,176.66h9.68a9.32,9.32,0,0,1,6.4,2,6.6,6.6,0,0,1,2.26,5.17q0,4.53-5.19,6a6.79,6.79,0,0,1,5.81,6.75,6.41,6.41,0,0,1-2.4,5.11,9.61,9.61,0,0,1-6.42,2H706.51Zm3.55,2.85v8.9h6a5.71,5.71,0,0,0,3.84-1.19,4,4,0,0,0,1.39-3.24,4.11,4.11,0,0,0-1.39-3.26A5.65,5.65,0,0,0,716,179.5Zm0,21.38h6.4a5.9,5.9,0,0,0,4-1.29,4.46,4.46,0,0,0,1.46-3.53,4.31,4.31,0,0,0-1.58-3.53,6.44,6.44,0,0,0-4.19-1.29h-6.13Z"/><path class="cls-5" d="M731.91,200.9a11.32,11.32,0,0,1-2.93-8,11,11,0,0,1,2.91-7.92,9.72,9.72,0,0,1,7.32-3,8.79,8.79,0,0,1,4.78,1.29,8.44,8.44,0,0,1,3.1,3.36v-4.29h3.59v21.42h-3.59v-4.37a8.5,8.5,0,0,1-3.1,3.41,8.69,8.69,0,0,1-4.78,1.31A9.56,9.56,0,0,1,731.91,200.9ZM745,198.82a9,9,0,0,0,0-11.63,6.88,6.88,0,0,0-5.11-2.19,7,7,0,0,0-5.11,2.11,7.71,7.71,0,0,0-2.13,5.74,8.21,8.21,0,0,0,2.15,5.89,7,7,0,0,0,10.2.08Z"/><path class="cls-5" d="M760.08,182.27v3.47a7.45,7.45,0,0,1,7-3.82,8.08,8.08,0,0,1,5.93,2.36,9.06,9.06,0,0,1,2.38,6.73v12.68h-3.51V191.6a7,7,0,0,0-1.56-4.92A5.6,5.6,0,0,0,766,185a5.66,5.66,0,0,0-4.33,1.68,6.92,6.92,0,0,0-1.58,4.92v12.1h-3.55V182.27Z"/><path class="cls-5" d="M784.58,203.69H781V174.82h3.55v16.93l8.19-9.48h5l-10.11,10.65,10.11,10.77H793l-8.39-9.4Z"/><path class="cls-5" d="M804.56,178.14a2.34,2.34,0,0,1-1.72.7,2.27,2.27,0,0,1-1.7-.7,2.37,2.37,0,0,1-.68-1.72,2.34,2.34,0,0,1,.7-1.72,2.4,2.4,0,0,1,3.39,0,2.45,2.45,0,0,1,0,3.43ZM801,203.69V182.27h3.55v21.42Z"/><path class="cls-5" d="M814,182.27v3.47a7.45,7.45,0,0,1,7-3.82,8.08,8.08,0,0,1,5.93,2.36,9.06,9.06,0,0,1,2.38,6.73v12.68h-3.51V191.6a7,7,0,0,0-1.56-4.92,5.6,5.6,0,0,0-4.31-1.68,5.66,5.66,0,0,0-4.33,1.68A6.92,6.92,0,0,0,814,191.6v12.1h-3.55V182.27Z"/><path class="cls-5" d="M836.47,200.9a11.32,11.32,0,0,1-2.93-8,11,11,0,0,1,2.91-7.92,9.72,9.72,0,0,1,7.32-3,8.79,8.79,0,0,1,4.78,1.29,8.44,8.44,0,0,1,3.1,3.36v-4.29h3.59v22a9.64,9.64,0,0,1-2.85,7.2,9.89,9.89,0,0,1-7.22,2.79,12.23,12.23,0,0,1-7.24-2,7.35,7.35,0,0,1-3.26-5.31h3.47a5.28,5.28,0,0,0,2.38,3,8.39,8.39,0,0,0,4.64,1.21,6.34,6.34,0,0,0,4.62-1.81,6.8,6.8,0,0,0,1.85-5.09v-4.92a8.5,8.5,0,0,1-3.1,3.41,8.69,8.69,0,0,1-4.78,1.31A9.56,9.56,0,0,1,836.47,200.9Zm13.05-2.09a9,9,0,0,0,0-11.63,6.88,6.88,0,0,0-5.11-2.19,7,7,0,0,0-5.11,2.11,7.71,7.71,0,0,0-2.13,5.74,8.21,8.21,0,0,0,2.15,5.89,7,7,0,0,0,10.2.08Z"/><path class="cls-5" d="M569.56,274.87h2.33v15.93h6.21v1.79h-8.54Z"/><path class="cls-5" d="M581.54,290.83a7.22,7.22,0,0,1-1.93-5.24,7.08,7.08,0,0,1,2-5.25,7.39,7.39,0,0,1,10.13,0,7.07,7.07,0,0,1,2,5.24,6.91,6.91,0,0,1-2.11,5.24,7.2,7.2,0,0,1-5.15,2A6.62,6.62,0,0,1,581.54,290.83Zm5,.08a4.71,4.71,0,0,0,3.41-1.42,5.25,5.25,0,0,0,1.44-3.93,5.35,5.35,0,0,0-1.38-3.91,4.54,4.54,0,0,0-3.36-1.41,4.37,4.37,0,0,0-3.31,1.41,5.49,5.49,0,0,0-1.33,3.93,5.62,5.62,0,0,0,1.28,3.93A4.2,4.2,0,0,0,586.52,290.91Z"/><path class="cls-5" d="M597.69,290.77a7.42,7.42,0,0,1-1.92-5.27,7.18,7.18,0,0,1,1.9-5.19,6.37,6.37,0,0,1,4.8-2,5.76,5.76,0,0,1,3.13.84,5.53,5.53,0,0,1,2,2.2v-2.81H610V293a6.32,6.32,0,0,1-1.87,4.72,6.48,6.48,0,0,1-4.73,1.83,8,8,0,0,1-4.74-1.33,4.82,4.82,0,0,1-2.14-3.48h2.28a3.46,3.46,0,0,0,1.56,2,5.5,5.5,0,0,0,3,.79,4.16,4.16,0,0,0,3-1.19,4.46,4.46,0,0,0,1.21-3.34v-3.22a5.57,5.57,0,0,1-2,2.24,5.7,5.7,0,0,1-3.13.86A6.27,6.27,0,0,1,597.69,290.77Zm8.55-1.37a5.91,5.91,0,0,0,0-7.62,4.51,4.51,0,0,0-3.35-1.43,4.59,4.59,0,0,0-3.35,1.38,5.05,5.05,0,0,0-1.39,3.76,5.38,5.38,0,0,0,1.41,3.86,4.56,4.56,0,0,0,6.69.05Z"/><path class="cls-5" d="M616.13,275.85a1.53,1.53,0,0,1-1.13.46,1.49,1.49,0,0,1-1.11-.46,1.55,1.55,0,0,1-.45-1.13,1.57,1.57,0,1,1,2.69,1.13Zm-2.3,16.75v-14h2.33v14Z"/><path class="cls-5" d="M622.32,278.56v2.28a4.88,4.88,0,0,1,4.58-2.51,5.3,5.3,0,0,1,3.89,1.55,5.94,5.94,0,0,1,1.56,4.41v8.31H630v-7.93a4.57,4.57,0,0,0-1-3.22,3.67,3.67,0,0,0-2.83-1.1,3.71,3.71,0,0,0-2.84,1.1,4.53,4.53,0,0,0-1,3.22v7.93H620v-14Z"/><g class="cls-23"><rect class="cls-17" x="650" y="267.95" width="206" height="31"/></g><path class="cls-5" d="M579.88,324.33a4.86,4.86,0,0,1,1.57,3.73,5,5,0,0,1-1.52,3.75,6.41,6.41,0,0,1-4.62,1.47h-3.43v7.31h-2.33V322.87h5.75A6.48,6.48,0,0,1,579.88,324.33Zm-8,7.11h3.43a4,4,0,0,0,2.85-.88,3.23,3.23,0,0,0,.93-2.47q0-3.35-3.79-3.35h-3.43Z"/><path class="cls-5" d="M585.34,338.77a7.42,7.42,0,0,1-1.92-5.27,7.18,7.18,0,0,1,1.9-5.19,6.37,6.37,0,0,1,4.8-2,5.76,5.76,0,0,1,3.13.84,5.53,5.53,0,0,1,2,2.2v-2.81h2.35v14h-2.35v-2.86a5.57,5.57,0,0,1-2,2.24,5.7,5.7,0,0,1-3.13.86A6.27,6.27,0,0,1,585.34,338.77Zm8.55-1.37a5.91,5.91,0,0,0,0-7.62,4.51,4.51,0,0,0-3.35-1.43,4.59,4.59,0,0,0-3.35,1.38,5.05,5.05,0,0,0-1.39,3.76,5.38,5.38,0,0,0,1.41,3.86,4.56,4.56,0,0,0,6.69.05Z"/><path class="cls-5" d="M601,330.52a3.73,3.73,0,0,1,1.47-3,5.79,5.79,0,0,1,3.81-1.21,5.31,5.31,0,0,1,3.67,1.19,4.55,4.55,0,0,1,1.46,3.26H609a2.69,2.69,0,0,0-.79-1.89,2.84,2.84,0,0,0-2.06-.72,3.15,3.15,0,0,0-2.07.63,2,2,0,0,0-.75,1.61,1.7,1.7,0,0,0,.86,1.52,6.14,6.14,0,0,0,2.07.78q1.21.24,2.43.56a4.39,4.39,0,0,1,2.07,1.2,3.45,3.45,0,0,1,.86,2.51,3.33,3.33,0,0,1-1.47,2.74,6.17,6.17,0,0,1-3.82,1.11,5.72,5.72,0,0,1-3.77-1.18A4.36,4.36,0,0,1,601,336.4h2.4a2.56,2.56,0,0,0,.83,1.88,3.09,3.09,0,0,0,2.15.7,3.5,3.5,0,0,0,2.15-.59,1.8,1.8,0,0,0,.78-1.5,1.82,1.82,0,0,0-.61-1.44,3.41,3.41,0,0,0-1.53-.74q-.92-.2-2-.49t-2-.6a3.26,3.26,0,0,1-1.53-1.11A3.16,3.16,0,0,1,601,330.52Z"/><path class="cls-5" d="M614.42,330.52a3.73,3.73,0,0,1,1.47-3,5.79,5.79,0,0,1,3.81-1.21,5.31,5.31,0,0,1,3.67,1.19,4.55,4.55,0,0,1,1.46,3.26h-2.4a2.69,2.69,0,0,0-.79-1.89,2.84,2.84,0,0,0-2.06-.72,3.15,3.15,0,0,0-2.07.63,2,2,0,0,0-.75,1.61,1.7,1.7,0,0,0,.86,1.52,6.14,6.14,0,0,0,2.07.78q1.21.24,2.43.56a4.39,4.39,0,0,1,2.07,1.2A3.45,3.45,0,0,1,625,337a3.33,3.33,0,0,1-1.47,2.74,6.17,6.17,0,0,1-3.82,1.11,5.72,5.72,0,0,1-3.77-1.18,4.36,4.36,0,0,1-1.55-3.25h2.4a2.56,2.56,0,0,0,.83,1.88,3.09,3.09,0,0,0,2.15.7,3.5,3.5,0,0,0,2.15-.59,1.8,1.8,0,0,0,.78-1.5,1.82,1.82,0,0,0-.61-1.44,3.41,3.41,0,0,0-1.53-.74q-.92-.2-2-.49t-2-.6a3.26,3.26,0,0,1-1.53-1.11A3.16,3.16,0,0,1,614.42,330.52Z"/><path class="cls-5" d="M644.46,326.56h2.35l-4.42,14H640l-3.17-11.15-3.17,11.15h-2.43l-4.45-14h2.4l3.25,11.71,3.3-11.71h2.4l3.12,11.74Z"/><path class="cls-5" d="M650.05,338.83a7.22,7.22,0,0,1-1.93-5.24,7.08,7.08,0,0,1,2-5.25,7.39,7.39,0,0,1,10.13,0,7.07,7.07,0,0,1,2,5.24,6.91,6.91,0,0,1-2.11,5.24,7.2,7.2,0,0,1-5.15,2A6.62,6.62,0,0,1,650.05,338.83Zm5,.08a4.71,4.71,0,0,0,3.41-1.42,5.25,5.25,0,0,0,1.44-3.93,5.35,5.35,0,0,0-1.38-3.91,4.54,4.54,0,0,0-3.36-1.41,4.37,4.37,0,0,0-3.31,1.41,5.49,5.49,0,0,0-1.33,3.93,5.62,5.62,0,0,0,1.28,3.93A4.2,4.2,0,0,0,655,338.91Z"/><path class="cls-5" d="M667.53,326.56v2.38a4.37,4.37,0,0,1,4.27-2.61v2.43h-.61a3.69,3.69,0,0,0-2.72.93,4.5,4.5,0,0,0-.93,3.24v7.67H665.2v-14Z"/><path class="cls-5" d="M675.61,338.77a7.42,7.42,0,0,1-1.92-5.27,7.18,7.18,0,0,1,1.9-5.19,6.37,6.37,0,0,1,4.8-2,5.76,5.76,0,0,1,3.13.84,5.53,5.53,0,0,1,2,2.2v-7.7h2.35V340.6h-2.35v-2.86a5.57,5.57,0,0,1-2,2.24,5.7,5.7,0,0,1-3.13.86A6.27,6.27,0,0,1,675.61,338.77Zm8.55-1.37a5.91,5.91,0,0,0,0-7.62,4.51,4.51,0,0,0-3.35-1.43,4.59,4.59,0,0,0-3.35,1.38,5.05,5.05,0,0,0-1.39,3.76,5.38,5.38,0,0,0,1.41,3.86,4.56,4.56,0,0,0,6.69.05Z"/><g class="cls-23"><rect class="cls-17" x="708" y="315.95" width="148" height="31"/></g><polygon class="cls-10" points="1016.66 405.76 1000 396.95 980 402.95 976 415.95 985 415.95 993.99 406.45 1016.66 405.76"/><path class="cls-10" d="M985.21,416.45h-9.89l4.28-13.9,20.45-6.14,18.51,9.8-24.36.73Zm-8.54-1h8.11l9-9.49,21-.63-14.81-7.84-19.55,5.86Z"/><polygon class="cls-6" points="1229 245.95 1254 303.95 1237 415.95 1126.56 496.55 1113 475.95 1200 387.95 1212 263.95 1229 245.95"/><path class="cls-10" d="M1133.66,190.71c.5-34.82,43.63-36.34,60.47-11.15,9.58,14.32,6.21,37.55-5.64,50.75.23,3,1.27,11.34-.66,13.73-2.09,2.59-10.24,1.89-13.41,1.72a4.77,4.77,0,0,1-2.53-.64c-.9-.64-1.39-2.67-1.8-5a28.48,28.48,0,0,1-7.1-.16c-10.36-1.51-19-9.34-23.69-18.71S1133.51,201.18,1133.66,190.71Z"/><path class="cls-10" d="M1179.81,246.47c-1.71,0-3.37-.1-4.65-.18l-.76,0a5.17,5.17,0,0,1-2.79-.73c-.95-.67-1.45-2.34-1.92-4.82a29.25,29.25,0,0,1-6.77-.2c-9.73-1.42-18.95-8.69-24.06-19-4.07-8.19-5.88-18-5.69-30.81h0c.2-13.9,7.26-23.92,19.37-27.5,14.88-4.4,33,2.51,42,16.08,9.32,13.94,6.77,37.33-5.55,51.2,0,.34.06.73.1,1.16.45,5.06.79,10.63-.88,12.71C1186.82,246.08,1183.2,246.47,1179.81,246.47Zm-9.3-6.86.08.46c.24,1.3.73,4,1.6,4.63a4.37,4.37,0,0,0,2.27.55l.76,0c3.13.19,10.45.63,12.23-1.58,1.56-1.93,1-8.73.67-12,0-.53-.09-1-.12-1.38l0-.21.14-.16c12.16-13.53,14.72-36.49,5.6-50.14-8.84-13.22-26.43-20-40.9-15.67-11.66,3.45-18.46,13.13-18.65,26.56-.18,12.66,1.59,22.31,5.59,30.35,5,10,13.9,17.07,23.31,18.44a28.13,28.13,0,0,0,7,.15Z"/><path class="cls-4" d="M1215.47,296.53a143.55,143.55,0,0,1-24.33,1.59c5.59.11-2.71-58.11-3.22-62.15-1.45-11.58-3.18-28.1-10.9-36.86s-18.21-10.48-30.36-17.46c-4.21-2.42-8.11-5.85-9.91-10.36-2-5-.87-10.81,1.84-15.45,4.17-7.13,9.87-11.32,17.77-12.89,16-3.18,34.14.26,47,10.43,15.58,12.29,23,33,27,51.86,1.05,5.07,1.81,10.22,3.49,15.12,1.8,5.24,4.6,10.06,7.19,15,3.83,7.23,7.26,14.81,8.47,22.9s0,16.81-4.83,23.42C1238,290.87,1226.28,294.9,1215.47,296.53Z"/><polygon class="cls-10" points="1115.37 479.55 1093 479.95 1076 496.95 1086 507.95 1124.21 492.99 1115.37 479.55"/><path class="cls-10" d="M1085.86,508.54l-10.55-11.61,17.48-17.48,22.85-.41,9.34,14.19-.57.23ZM1076.69,497l9.45,10.39,37.32-14.61-8.36-12.7-21.89.39Z"/></g></g></g></svg>