<svg xmlns="http://www.w3.org/2000/svg" x="0px" y="0px" width="30" height="30" viewBox="0 0 172 172" style=" fill:#000000;"><g fill="none" fill-rule="nonzero" stroke="none" stroke-width="1" stroke-linecap="butt" stroke-linejoin="miter" stroke-miterlimit="10" stroke-dasharray="" stroke-dashoffset="0" font-family="none" font-weight="none" font-size="none" text-anchor="none" style="mix-blend-mode: normal"><path d="M0,172v-172h172v172z" fill="none"></path><g fill="#006fc5"><path d="M17.2,27.52c-2.48118,-0.03509 -4.78904,1.2685 -6.03987,3.41161c-1.25083,2.1431 -1.25083,4.79369 0,6.93679c1.25083,2.1431 3.55869,3.4467 6.03987,3.41161h137.6c2.48118,0.03509 4.78904,-1.2685 6.03987,-3.41161c1.25083,-2.1431 1.25083,-4.79369 0,-6.93679c-1.25083,-2.1431 -3.55869,-3.4467 -6.03987,-3.41161zM17.2,79.12c-2.48118,-0.03509 -4.78904,1.2685 -6.03987,3.41161c-1.25083,2.1431 -1.25083,4.79369 0,6.93679c1.25083,2.1431 3.55869,3.4467 6.03987,3.41161h137.6c2.48118,0.03509 4.78904,-1.2685 6.03987,-3.41161c1.25083,-2.1431 1.25083,-4.79369 0,-6.93679c-1.25083,-2.1431 -3.55869,-3.4467 -6.03987,-3.41161zM17.2,130.72c-2.48118,-0.03509 -4.78904,1.2685 -6.03987,3.41161c-1.25083,2.1431 -1.25083,4.79369 0,6.93679c1.25083,2.1431 3.55869,3.4467 6.03987,3.41161h137.6c2.48118,0.03509 4.78904,-1.2685 6.03987,-3.41161c1.25083,-2.1431 1.25083,-4.79369 0,-6.93679c-1.25083,-2.1431 -3.55869,-3.4467 -6.03987,-3.41161z"></path></g></g></svg>